<svg width="701" height="499" viewBox="0 0 701 499" fill="none" xmlns="http://www.w3.org/2000/svg">
<rect width="700" height="498.485" transform="translate(0.800003)" fill="white"/>
<path d="M373.743 444.381C373.743 443.267 374.35 442.862 375.768 443.267C377.186 443.672 378.3 443.064 379.414 441.343C380.934 439.114 380.832 438.608 377.693 432.328C374.452 425.846 373.439 424.834 372.325 426.657C372.021 427.163 370.907 427.366 369.793 427.062C368.273 426.657 367.767 427.264 367.26 430.1C366.855 432.025 367.058 434.759 367.666 436.278C368.476 438.608 368.375 438.912 366.349 438.912C364.222 438.912 364.121 438.507 364.222 432.126C364.425 425.34 364.425 425.34 370.299 425.036C373.641 424.834 377.085 424.53 378.098 424.327C379.516 424.023 379.718 424.226 378.807 425.239C377.996 426.15 378.199 427.467 379.516 430.201C380.427 432.227 381.541 433.848 381.946 433.848C382.959 433.848 385.289 427.771 385.188 425.542C385.086 424.53 385.694 423.719 386.504 423.719C388.226 423.719 388.226 424.125 386.909 426.555C386.403 427.467 384.985 430.809 383.871 433.848C381.035 441.748 378.199 446.002 375.768 446.002C374.553 446.002 373.743 445.293 373.743 444.381Z" fill="black"/>
<path d="M542.884 444.482C542.884 443.47 543.897 442.963 545.821 442.963C547.948 442.963 549.062 442.355 549.468 440.937C550.176 438.709 545.619 427.872 543.087 426.049C541.669 424.834 541.669 424.732 543.087 424.732C543.998 424.732 545.517 424.428 546.53 424.023C547.948 423.517 548.151 423.719 547.644 425.036C547.037 426.758 549.67 433.848 550.987 433.848C552.202 433.848 555.038 426.758 554.43 425.239C553.924 424.023 554.633 423.719 557.469 423.719C560.001 423.719 561.115 423.314 561.115 422.2C561.115 421.39 561.621 420.681 562.128 420.681C562.736 420.681 563.141 421.39 563.141 422.2C563.141 423.01 563.85 423.719 564.66 423.719C565.47 423.719 566.179 424.226 566.179 424.732C566.179 425.34 565.47 425.745 564.66 425.745C563.546 425.745 563.141 427.062 563.141 431.214C563.141 436.177 563.343 436.785 565.47 437.19C567.496 437.494 567.496 437.595 564.862 438.304C563.343 438.811 561.723 438.912 561.419 438.507C561.115 438.203 560.811 435.367 560.811 432.328C560.811 426.859 559.292 423.821 557.165 425.137C556.659 425.441 554.835 429.493 553.012 434.05C551.291 438.709 549.164 443.267 548.252 444.179C546.227 446.407 542.884 446.609 542.884 444.482Z" fill="black"/>
<path d="M611.25 444.584C609.528 443.368 609.427 442.862 610.642 440.634C612.161 437.798 612.465 433.544 611.351 430.303C610.541 427.771 611.554 426.252 614.795 425.34C616.922 424.732 617.023 424.834 615.605 425.745C613.478 427.062 613.174 430.809 614.997 432.632C615.909 433.544 615.909 433.848 614.997 433.848C614.288 433.848 613.782 434.557 613.782 435.367C613.782 436.481 614.896 436.886 617.631 436.886C619.758 436.886 621.986 437.393 622.695 438.102C624.214 439.621 624.315 442.659 622.897 443.47C622.29 443.773 622.188 443.368 622.492 442.558C623.201 440.634 621.783 440.026 616.314 439.621C612.87 439.418 612.263 439.722 612.263 441.444C612.263 443.064 613.073 443.571 616.618 443.773C618.947 443.976 620.669 444.482 620.365 445.09C619.454 446.508 613.377 446.204 611.25 444.584Z" fill="black"/>
<path d="M109.902 437.494C107.268 434.861 106.661 431.012 108.382 427.771C110.915 423.112 117.295 422.909 119.422 427.366C120.435 429.796 120.435 429.796 115.573 429.796C112.94 429.796 110.509 430.1 110.104 430.404C109.8 430.809 110.104 432.328 111.016 433.949C112.535 436.987 116.89 438.102 117.802 435.671C118.004 434.962 118.612 434.658 119.118 435.164C120.131 436.076 117.7 438.507 114.763 439.418C113.041 439.823 111.826 439.317 109.902 437.494ZM115.472 427.163C115.472 426.15 114.763 425.745 113.244 425.948C110.003 426.454 109.699 428.784 112.839 428.784C114.561 428.784 115.472 428.277 115.472 427.163Z" fill="black"/>
<path d="M140.59 438.203C138.159 435.367 137.754 431.822 139.375 428.581C140.185 427.062 140.995 425.745 141.198 425.745C141.502 425.745 142.312 425.441 143.224 425.137C144.135 424.834 144.844 424.935 144.844 425.543C144.844 426.049 143.933 426.758 142.818 427.062C141.299 427.467 140.793 428.48 140.793 430.708C140.793 433.645 143.73 437.899 145.756 437.899C146.262 437.899 147.477 437.19 148.288 436.278C149.199 435.468 149.908 435.164 149.908 435.772C149.908 437.494 146.768 439.925 144.439 439.925C143.122 439.925 141.401 439.114 140.59 438.203Z" fill="black"/>
<path d="M153.757 429.695C154.061 421.896 153.858 419.162 152.744 418.554C151.833 417.946 152.238 417.642 154.061 417.642C156.39 417.642 156.694 418.048 156.593 421.491C156.492 425.137 156.593 425.239 160.239 425.239C162.265 425.34 164.189 425.543 164.392 425.745C164.695 426.049 165.101 429.391 165.303 433.139C165.607 438.912 165.506 439.925 164.088 439.722C162.974 439.418 162.569 438 162.366 434.354C162.265 431.518 162.163 428.682 162.163 428.075C162.062 427.366 160.948 426.758 159.53 426.758C156.897 426.758 156.593 427.467 156.897 434.759C156.998 437.798 155.783 439.823 153.96 439.925C153.656 439.925 153.656 435.266 153.757 429.695Z" fill="black"/>
<path d="M170.671 432.835C170.671 428.176 171.076 425.644 171.887 425.34C173.71 424.631 174.013 425.644 173.811 432.835C173.71 437.798 173.305 439.418 172.19 439.722C170.975 439.925 170.671 438.608 170.671 432.835Z" fill="black"/>
<path d="M179.989 429.087C180.09 420.985 180.496 418.048 181.508 417.845C182.521 417.642 182.825 419.972 182.825 427.973C182.825 437.19 182.217 439.823 180.293 439.925C179.989 439.925 179.888 435.063 179.989 429.087Z" fill="black"/>
<path d="M188.902 437.899C184.952 433.544 187.889 424.732 193.358 424.732C195.384 424.732 196.397 424.125 196.802 422.707C197.106 421.593 196.903 420.377 196.397 420.073C194.776 419.06 195.384 417.642 197.511 417.642C199.435 417.642 199.537 418.351 199.537 427.568C199.537 433.949 199.942 437.899 200.752 438.709C201.664 439.621 200.752 439.925 196.397 439.925C192.042 439.925 190.32 439.418 188.902 437.899ZM195.587 426.454C194.067 424.935 191.535 426.353 190.421 429.29C189.105 432.632 190.725 436.684 193.662 437.798C195.891 438.608 195.992 438.405 196.296 433.037C196.498 429.999 196.194 427.062 195.587 426.454Z" fill="black"/>
<path d="M225.465 437.696C221.92 432.632 225.262 424.732 231.035 424.732C233.466 424.732 233.973 424.327 233.973 422.2C233.973 420.782 233.466 419.668 232.859 419.668C232.352 419.668 232.15 419.263 232.453 418.655C232.757 418.149 233.871 417.642 234.783 417.642C236.403 417.642 236.606 418.959 236.707 427.771C236.809 433.341 237.214 438.405 237.518 438.912C237.923 439.519 235.897 439.925 232.555 439.925C227.997 439.925 226.68 439.519 225.465 437.696ZM233.973 433.443C233.973 425.948 232.048 423.821 228.503 427.366C225.161 430.607 227.187 437.899 231.441 437.899C233.77 437.899 233.973 437.494 233.973 433.443Z" fill="black"/>
<path d="M242.48 435.063C242.683 432.43 242.379 429.594 241.974 428.682C241.366 427.568 241.67 426.555 242.582 425.745C243.493 425.036 244.304 424.631 244.506 424.834C244.81 425.036 245.114 428.378 245.215 432.227C245.418 438 245.215 439.317 243.797 439.52C242.48 439.722 242.278 438.811 242.48 435.063Z" fill="black"/>
<path d="M250.786 437.696C247.241 432.632 250.583 424.732 256.356 424.732C258.888 424.732 259.293 424.327 259.293 421.795C259.293 420.175 258.686 418.554 258.078 418.351C257.369 418.048 257.875 417.744 259.293 417.744C261.825 417.642 261.825 417.642 261.927 428.784C262.028 439.925 262.028 439.925 257.166 439.925C253.318 439.925 252.001 439.418 250.786 437.696ZM259.293 433.645C259.293 426.555 258.28 424.935 254.837 426.555C250.583 428.48 251.495 436.481 256.255 438.203C259.091 439.216 259.293 438.912 259.293 433.645Z" fill="black"/>
<path d="M293.527 433.139C293.831 428.277 293.628 426.758 292.615 426.657C291.805 426.555 293.729 426.15 296.768 425.745C299.806 425.34 302.845 425.239 303.554 425.441C304.668 425.948 305.883 438.811 304.87 439.418C303.452 440.33 302.136 438.102 302.136 434.861C301.933 426.657 302.034 426.758 298.895 426.758C295.958 426.758 295.958 426.758 296.363 433.139C296.667 438.709 296.565 439.52 294.945 439.52C293.426 439.52 293.223 438.709 293.527 433.139Z" fill="black"/>
<path d="M310.542 437.696C308.517 434.86 308.517 429.898 310.441 427.366C312.467 424.631 318.442 424.327 320.67 426.859C322.899 429.29 322.899 433.949 320.67 437.291C318.442 440.735 312.77 440.937 310.542 437.696ZM318.949 436.582C320.265 433.24 319.151 428.986 316.72 427.264C314.796 425.948 314.391 425.948 313.074 427.264C310.947 429.29 311.352 435.975 313.581 437.595C316.214 439.52 317.936 439.216 318.949 436.582Z" fill="black"/>
<path d="M327.355 438.507C326.849 437.899 326.14 434.557 325.937 431.113C325.633 426.049 325.836 424.428 327.456 422.504C329.279 420.175 329.279 420.175 328.672 422.403C328.165 424.125 328.571 424.631 330.394 425.036C332.622 425.441 332.622 425.543 330.697 426.15C328.672 426.859 328.267 429.695 329.077 437.291C329.178 437.696 329.887 437.899 330.697 437.494C331.508 437.19 332.217 437.291 332.217 437.798C332.217 439.216 328.267 439.823 327.355 438.507Z" fill="black"/>
<path d="M426.004 437.494C422.966 434.557 422.763 431.923 424.89 427.771C426.207 425.137 427.017 424.732 430.461 424.732C435.525 424.732 438.158 427.973 437.145 433.24C436.436 437.19 435.12 438.405 431.271 439.418C429.144 439.925 427.929 439.519 426.004 437.494ZM432.588 437.899C436.538 435.772 434.309 425.745 429.954 425.745C426.612 425.745 425.295 432.835 428.03 436.684C429.752 439.216 429.954 439.317 432.588 437.899Z" fill="black"/>
<path d="M460.845 437.899C458.415 435.468 458.212 431.822 460.339 427.771C461.656 425.34 462.567 424.732 465.403 424.732C467.733 424.732 469.353 425.441 470.366 426.96C472.29 429.594 471.784 430.607 468.442 430.607C466.517 430.607 466.112 430.201 466.922 429.29C468.543 427.366 465.403 425.036 463.377 426.758C461.352 428.378 461.453 429.493 463.681 430.1C464.998 430.505 464.795 430.607 463.175 430.708C460.238 430.809 460.238 432.025 463.175 435.468C465.504 438.102 465.504 438.102 469.049 436.38C472.493 434.557 472.493 434.557 470.062 437.291C467.125 440.431 463.58 440.634 460.845 437.899Z" fill="black"/>
<path d="M474.316 439.216C471.683 438.203 472.999 434.86 477.051 432.227C481.001 429.594 482.317 426.454 479.887 425.441C478.975 425.036 478.874 424.834 479.785 424.834C482.115 424.631 484.14 427.872 483.938 431.619C483.837 433.645 484.14 436.177 484.647 437.19C485.66 439.621 484.444 440.634 482.115 439.114C480.899 438.405 479.988 438.304 479.583 438.912C478.975 439.925 476.443 440.127 474.316 439.216ZM480.697 436.481C481.001 435.671 481.102 434.05 480.899 432.835C480.596 430.607 480.595 430.607 478.165 432.531C476.544 433.848 475.937 435.164 476.342 436.177C477.152 438.304 479.988 438.405 480.697 436.481Z" fill="black"/>
<path d="M490.42 438.709C489.711 438 489.204 435.063 489.204 432.126C489.204 428.784 488.799 426.758 487.989 426.758C487.381 426.758 487.584 426.049 488.496 424.935C489.508 423.922 490.217 422.504 490.217 421.795C490.217 421.086 490.724 420.884 491.23 421.187C491.838 421.592 492.04 422.301 491.737 422.808C491.331 423.314 492.142 424.125 493.458 424.631C495.686 425.542 495.585 425.846 493.053 426.15C492.04 426.251 491.838 429.189 492.142 436.481C492.243 437.494 492.851 437.899 493.762 437.494C494.572 437.19 495.281 437.393 495.281 437.798C495.281 438.304 494.572 439.013 493.661 439.317C491.635 440.127 491.838 440.127 490.42 438.709Z" fill="black"/>
<path d="M514.323 438.81C511.183 437.089 512.196 434.05 516.551 431.619C519.792 429.796 520.602 428.784 520.298 427.062C520.096 425.745 520.197 424.732 520.703 424.732C522.324 424.732 523.539 428.378 523.235 432.227C523.033 434.759 523.337 436.177 524.248 436.582C526.78 437.494 524.451 439.114 521.514 438.507C519.994 438.203 518.374 438.405 518.07 438.912C517.26 440.127 516.551 440.127 514.323 438.81ZM520.602 433.848C520.602 431.012 520.501 430.91 518.07 432.025C514.323 433.645 514.829 436.886 518.779 436.886C520.096 436.886 520.602 436.076 520.602 433.848Z" fill="black"/>
<path d="M628.569 439.216C627.455 438.102 627.962 436.886 629.481 436.886C630.291 436.886 631 437.291 631 437.798C631 439.114 629.379 440.026 628.569 439.216Z" fill="black"/>
<path d="M78.808 428.682C79.1118 418.351 79.1118 418.351 76.2759 419.162C74.7567 419.466 73.1361 420.377 72.731 420.985C71.7182 422.605 70.5028 421.086 71.2118 419.162C71.7182 417.946 73.6426 417.642 80.5298 417.642C89.1388 417.642 89.1388 417.642 89.0375 420.478C89.0375 422.099 88.7336 422.605 88.4298 421.694C87.6195 419.769 86.1003 418.655 83.8721 418.655C82.2516 418.655 82.049 419.769 82.049 428.176C82.049 434.86 82.4541 437.899 83.3657 438.203C83.9734 438.507 83.2644 438.811 81.5426 438.811C78.5041 438.912 78.5041 438.912 78.808 428.682Z" fill="black"/>
<path d="M92.6837 428.075C92.785 420.681 93.1901 417.136 94.0004 416.832C94.8106 416.63 95.2158 417.946 95.2158 421.086C95.2158 425.644 95.2157 425.644 98.8619 425.036C103.116 424.327 104.534 425.745 103.622 429.999C103.318 431.518 103.521 434.152 104.129 435.873C105.141 438.608 105.04 438.912 103.015 438.912C100.989 438.912 100.786 438.507 101.191 433.24C101.495 426.96 100.28 425.137 96.9376 426.961C95.3171 427.771 95.1145 428.885 95.4183 433.443C95.6209 437.798 95.4183 438.912 94.2029 438.912C92.8863 438.912 92.5824 437.19 92.6837 428.075Z" fill="black"/>
<path d="M356.221 438.203C355.309 436.785 355.208 424.226 356.018 422.504C356.93 420.377 359.056 420.073 358.246 422.099C357.841 423.112 358.651 423.922 360.373 424.631C363.108 425.543 363.108 425.543 360.475 425.644C358.044 425.745 357.942 426.049 358.044 430.607C358.246 436.38 359.057 438 361.386 437.291C362.804 436.785 362.905 436.886 361.589 437.798C359.867 439.013 356.828 439.216 356.221 438.203Z" fill="black"/>
<path d="M416.079 436.684C415.977 435.367 415.876 432.734 415.876 430.809C415.775 428.885 415.369 426.758 414.964 426.049C414.559 425.34 414.964 423.922 415.977 422.707C418.003 420.276 419.522 420.073 418.712 422.2C418.307 423.112 418.712 423.719 419.725 423.719C420.636 423.719 421.345 424.226 421.345 424.732C421.345 425.34 420.636 425.745 419.826 425.745C418.611 425.745 418.307 427.062 418.307 431.316C418.307 436.278 418.509 436.886 420.434 436.886C421.548 436.886 422.155 437.393 421.852 437.899C421.548 438.507 420.13 438.912 418.712 438.912C416.889 438.912 416.281 438.304 416.079 436.684Z" fill="black"/>
<path d="M527.287 438.102C527.996 437.696 528.3 435.063 528.097 431.214C527.793 425.137 527.793 425.137 533.161 424.935C539.238 424.834 539.846 425.441 539.238 430.607C539.035 432.328 539.339 434.962 539.846 436.38C540.656 438.608 540.555 438.912 538.529 438.912C536.402 438.912 536.301 438.507 536.706 433.24C537.01 427.163 536.098 425.543 532.553 426.555C530.832 426.96 530.629 427.771 530.933 432.936C531.237 438.709 531.135 438.912 528.705 438.912C527.287 438.912 526.679 438.608 527.287 438.102Z" fill="black"/>
<path d="M569.521 429.695C569.623 424.631 569.42 420.276 569.015 419.972C567.597 419.162 568.205 417.845 570.23 417.339C572.053 416.832 572.256 417.339 572.256 421.289C572.256 425.846 572.256 425.846 575.598 425.239C580.055 424.428 581.068 425.846 581.574 433.139C581.878 438.405 581.675 438.912 579.852 438.912C578.029 438.912 577.827 438.405 578.13 433.848C578.637 427.062 578.13 425.846 574.788 426.555C572.155 426.96 572.053 427.264 572.459 432.936C572.661 438 572.459 438.912 571.041 438.912C569.521 438.912 569.319 437.696 569.521 429.695Z" fill="black"/>
<path d="M586.841 432.835C587.043 429.493 586.74 426.758 586.233 426.758C585.727 426.758 585.625 426.353 585.929 425.745C586.233 425.239 587.145 424.732 587.955 424.732C588.968 424.732 589.373 426.657 589.677 431.822C589.981 438 589.778 438.912 588.259 438.912C586.74 438.912 586.537 438 586.841 432.835Z" fill="black"/>
<path d="M594.943 432.835C595.045 429.493 594.741 426.758 594.234 426.758C593.829 426.758 593.728 426.251 594.032 425.644C594.437 425.137 595.45 424.732 596.26 424.935C598.59 425.441 598.792 438.912 596.463 438.912C595.045 438.912 594.842 437.798 594.943 432.835Z" fill="black"/>
<path d="M603.451 433.037C603.755 427.669 603.552 427.062 601.426 426.049C599.197 424.935 599.197 424.834 602.438 424.834C605.781 424.732 605.983 425.036 605.679 430.303C605.679 432.025 605.983 434.658 606.591 436.177C607.502 438.608 607.401 438.912 605.375 438.912C603.249 438.912 603.147 438.507 603.451 433.037Z" fill="black"/>
<path d="M616.82 433.848C616.82 433.24 617.226 432.835 617.732 432.835C619.251 432.835 619.859 429.898 618.846 427.163C617.935 424.935 618.137 424.631 619.555 424.935C620.973 425.137 621.378 426.252 621.378 429.189C621.378 432.328 620.973 433.24 619.15 433.949C617.732 434.455 616.82 434.455 616.82 433.848Z" fill="black"/>
<path d="M146.971 427.973C145.654 425.441 147.174 424.125 148.895 426.353C149.807 427.366 149.908 428.176 149.199 428.885C148.389 429.695 147.781 429.391 146.971 427.973Z" fill="black"/>
<path d="M474.012 428.48C474.012 427.669 474.721 426.353 475.633 425.644C477.051 424.53 477.152 424.631 476.848 426.758C476.544 429.391 474.012 430.911 474.012 428.48Z" fill="black"/>
<path d="M513.512 428.885C513.512 426.859 514.829 424.732 516.044 424.732C517.057 424.732 517.158 425.239 516.247 427.264C515.032 429.796 513.512 430.708 513.512 428.885Z" fill="black"/>
<path d="M622.897 425.745C622.897 425.036 623.201 424.732 623.606 425.036C623.91 425.441 623.91 426.049 623.606 426.454C623.201 426.758 622.897 426.454 622.897 425.745Z" fill="black"/>
<path d="M171.178 418.655C171.178 416.731 172.292 416.022 173.507 417.237C174.317 418.048 173.203 420.681 172.089 420.681C171.583 420.681 171.178 419.769 171.178 418.655Z" fill="black"/>
<path d="M242.582 419.668C242.177 419.06 242.278 418.048 242.886 417.44C243.493 416.832 244.101 416.832 244.607 417.642C245.013 418.25 244.911 419.263 244.304 419.871C243.696 420.478 243.088 420.478 242.582 419.668Z" fill="black"/>
<path d="M586.436 418.149C586.436 417.339 587.145 416.63 587.955 416.63C588.765 416.63 589.474 417.339 589.474 418.149C589.474 418.959 588.765 419.668 587.955 419.668C587.145 419.668 586.436 418.959 586.436 418.149Z" fill="black"/>
<path d="M95.4183 409.439C95.6209 408.831 96.2286 408.426 96.735 408.426C97.2414 408.426 97.8491 408.831 98.0517 409.439C98.2542 410.046 97.6465 410.553 96.735 410.553C95.8235 410.553 95.2158 410.046 95.4183 409.439Z" fill="black"/>
<path d="M170.772 408.831C169.658 407.717 170.165 406.501 171.684 406.501C172.494 406.501 173.203 406.907 173.203 407.413C173.203 408.73 171.583 409.641 170.772 408.831Z" fill="black"/>
<path d="M424.384 407.514C424.384 407.008 424.89 406.501 425.397 406.501C426.004 406.501 426.409 407.008 426.409 407.514C426.409 408.122 426.004 408.527 425.397 408.527C424.89 408.527 424.384 408.122 424.384 407.514Z" fill="black"/>
<path d="M310.745 406.299C311.656 405.387 312.264 405.387 313.176 406.299C314.087 407.21 313.885 407.514 311.96 407.514C310.036 407.514 309.833 407.21 310.745 406.299Z" fill="black"/>
<path d="M370.704 405.894C370.704 405.083 371.21 404.678 371.717 404.982C372.325 405.286 372.73 405.995 372.73 406.603C372.73 407.109 372.325 407.514 371.717 407.514C371.21 407.514 370.704 406.805 370.704 405.894Z" fill="black"/>
<path d="M475.633 405.792C474.519 404.678 475.025 403.463 476.544 403.463C477.354 403.463 478.063 403.868 478.063 404.374C478.063 405.691 476.443 406.603 475.633 405.792Z" fill="black"/>
<path d="M565.774 405.691C565.47 405.083 565.673 404.273 566.28 403.969C567.8 402.957 568.813 404.273 567.496 405.59C566.787 406.299 566.179 406.299 565.774 405.691Z" fill="black"/>
<path d="M243.088 403.564C243.088 402.957 243.595 402.248 244.101 401.944C244.709 401.64 245.114 402.045 245.114 402.855C245.114 403.767 244.709 404.476 244.101 404.476C243.595 404.476 243.088 404.071 243.088 403.564Z" fill="black"/>
<path d="M95.4183 400.323C95.6209 399.715 96.2286 399.31 96.735 399.31C97.2414 399.31 97.8491 399.715 98.0517 400.323C98.2542 400.931 97.6465 401.437 96.735 401.437C95.8235 401.437 95.2158 400.931 95.4183 400.323Z" fill="black"/>
<path d="M170.772 399.715C169.658 398.601 170.165 397.386 171.684 397.386C172.494 397.386 173.203 397.791 173.203 398.298C173.203 399.614 171.583 400.526 170.772 399.715Z" fill="black"/>
<path d="M311.555 398.5C311.15 397.791 311.049 396.981 311.353 396.677C312.264 395.766 313.277 397.082 312.77 398.5C312.365 399.614 312.163 399.614 311.555 398.5Z" fill="black"/>
<path d="M424.384 398.399C424.384 397.892 425.093 397.386 426.004 397.386C426.814 397.386 427.22 397.892 426.916 398.399C426.612 399.007 425.903 399.412 425.295 399.412C424.789 399.412 424.384 399.007 424.384 398.399Z" fill="black"/>
<path d="M370.704 396.778C370.704 395.968 371.21 395.563 371.717 395.867C372.325 396.171 372.73 396.88 372.73 397.487C372.73 397.994 372.325 398.399 371.717 398.399C371.21 398.399 370.704 397.69 370.704 396.778Z" fill="black"/>
<path d="M475.025 395.765C475.025 394.854 475.531 394.348 476.24 394.55C478.063 395.158 478.367 397.386 476.645 397.386C475.734 397.386 475.025 396.677 475.025 395.765Z" fill="black"/>
<path d="M565.774 396.576C565.47 395.968 565.673 395.158 566.28 394.854C567.8 393.841 568.813 395.158 567.496 396.474C566.787 397.183 566.179 397.183 565.774 396.576Z" fill="black"/>
<path d="M243.088 394.449C243.088 393.841 243.595 393.132 244.101 392.828C244.709 392.524 245.114 392.93 245.114 393.74C245.114 394.651 244.709 395.36 244.101 395.36C243.595 395.36 243.088 394.955 243.088 394.449Z" fill="black"/>
<path d="M95.4183 391.208C95.6209 390.6 96.2286 390.195 96.735 390.195C97.2414 390.195 97.8491 390.6 98.0517 391.208C98.2542 391.815 97.6465 392.322 96.735 392.322C95.8235 392.322 95.2158 391.815 95.4183 391.208Z" fill="black"/>
<path d="M170.772 390.6C169.658 389.486 170.165 388.271 171.684 388.271C172.494 388.271 173.203 388.676 173.203 389.182C173.203 390.499 171.583 391.41 170.772 390.6Z" fill="black"/>
<path d="M424.384 389.283C424.384 388.777 425.093 388.271 426.004 388.271C426.814 388.271 427.22 388.777 426.916 389.283C426.612 389.891 425.903 390.296 425.295 390.296C424.789 390.296 424.384 389.891 424.384 389.283Z" fill="black"/>
<path d="M310.947 387.764C310.947 386.954 311.454 386.245 311.96 386.245C312.568 386.245 312.973 386.954 312.973 387.764C312.973 388.574 312.568 389.283 311.96 389.283C311.454 389.283 310.947 388.574 310.947 387.764Z" fill="black"/>
<path d="M370.704 388.372C370.704 387.764 371.21 387.055 371.717 386.751C372.325 386.447 372.73 386.853 372.73 387.663C372.73 388.574 372.325 389.283 371.717 389.283C371.21 389.283 370.704 388.878 370.704 388.372Z" fill="black"/>
<path d="M475.025 386.751C475.025 385.941 475.734 385.232 476.544 385.232C477.354 385.232 478.063 385.941 478.063 386.751C478.063 387.562 477.354 388.271 476.544 388.271C475.734 388.271 475.025 387.562 475.025 386.751Z" fill="black"/>
<path d="M565.774 387.46C565.47 386.853 565.673 386.042 566.28 385.738C567.8 384.726 568.813 386.042 567.496 387.359C566.787 388.068 566.179 388.068 565.774 387.46Z" fill="black"/>
<path d="M243.088 384.726C243.088 383.814 243.696 383.51 244.607 383.814C245.418 384.219 245.823 384.827 245.519 385.333C244.709 386.751 243.088 386.346 243.088 384.726Z" fill="black"/>
<path d="M95.4183 382.092C95.6209 381.485 96.2286 381.08 96.735 381.08C97.2414 381.08 97.8491 381.485 98.0517 382.092C98.2542 382.7 97.6465 383.206 96.735 383.206C95.8235 383.206 95.2158 382.7 95.4183 382.092Z" fill="black"/>
<path d="M170.772 381.485C169.658 380.371 170.165 379.155 171.684 379.155C172.494 379.155 173.203 379.56 173.203 380.067C173.203 381.383 171.583 382.295 170.772 381.485Z" fill="black"/>
<path d="M311.454 380.067C310.441 378.547 311.758 377.535 313.074 378.851C313.783 379.56 313.783 380.168 313.176 380.573C312.568 380.877 311.758 380.674 311.454 380.067Z" fill="black"/>
<path d="M424.384 380.168C424.384 379.662 425.093 379.155 426.004 379.155C426.814 379.155 427.22 379.662 426.916 380.168C426.612 380.776 425.903 381.181 425.295 381.181C424.789 381.181 424.384 380.776 424.384 380.168Z" fill="black"/>
<path d="M370.704 379.155C370.704 378.649 371.413 378.142 372.325 378.142C373.135 378.142 373.54 378.649 373.236 379.155C372.932 379.763 372.223 380.168 371.616 380.168C371.109 380.168 370.704 379.763 370.704 379.155Z" fill="black"/>
<path d="M475.025 377.535C475.025 376.623 475.531 376.117 476.24 376.319C478.063 376.927 478.367 379.155 476.645 379.155C475.734 379.155 475.025 378.446 475.025 377.535Z" fill="black"/>
<path d="M565.166 377.129C565.166 376.623 565.673 376.117 566.179 376.117C566.787 376.117 567.192 376.623 567.192 377.129C567.192 377.737 566.787 378.142 566.179 378.142C565.673 378.142 565.166 377.737 565.166 377.129Z" fill="black"/>
<path d="M243.088 375.509C243.088 374.699 243.595 374.294 244.101 374.597C244.709 374.901 245.114 375.61 245.114 376.218C245.114 376.724 244.709 377.129 244.101 377.129C243.595 377.129 243.088 376.421 243.088 375.509Z" fill="black"/>
<path d="M95.4183 372.977C95.6209 372.369 96.2286 371.964 96.735 371.964C97.2414 371.964 97.8491 372.369 98.0517 372.977C98.2542 373.585 97.6465 374.091 96.735 374.091C95.8235 374.091 95.2158 373.585 95.4183 372.977Z" fill="black"/>
<path d="M170.772 372.369C169.658 371.255 170.165 370.04 171.684 370.04C172.494 370.04 173.203 370.445 173.203 370.951C173.203 372.268 171.583 373.179 170.772 372.369Z" fill="black"/>
<path d="M310.947 370.647C310.947 369.736 311.454 369.027 311.96 369.027C312.568 369.027 312.973 369.432 312.973 369.938C312.973 370.546 312.568 371.255 311.96 371.559C311.454 371.863 310.947 371.458 310.947 370.647Z" fill="black"/>
<path d="M424.384 371.053C424.384 370.546 425.093 370.04 426.004 370.04C426.814 370.04 427.22 370.546 426.916 371.053C426.612 371.66 425.903 372.065 425.295 372.065C424.789 372.065 424.384 371.66 424.384 371.053Z" fill="black"/>
<path d="M370.704 369.432C370.704 368.622 371.21 368.217 371.717 368.52C372.325 368.824 372.73 369.533 372.73 370.141C372.73 370.647 372.325 371.053 371.717 371.053C371.21 371.053 370.704 370.344 370.704 369.432Z" fill="black"/>
<path d="M475.025 368.52C475.025 367.71 475.734 367.001 476.544 367.001C477.354 367.001 478.063 367.71 478.063 368.52C478.063 369.331 477.354 370.04 476.544 370.04C475.734 370.04 475.025 369.331 475.025 368.52Z" fill="black"/>
<path d="M243.088 367.001C243.088 366.495 243.797 365.988 244.709 365.988C245.519 365.988 245.924 366.495 245.62 367.001C245.316 367.609 244.607 368.014 244 368.014C243.493 368.014 243.088 367.609 243.088 367.001Z" fill="black"/>
<path d="M95.4183 363.861C95.6209 363.254 96.2286 362.849 96.735 362.849C97.2414 362.849 97.8491 363.254 98.0517 363.861C98.2542 364.469 97.6465 364.976 96.735 364.976C95.8235 364.976 95.2158 364.469 95.4183 363.861Z" fill="black"/>
<path d="M170.772 363.254C169.658 362.14 170.165 360.924 171.684 360.924C172.494 360.924 173.203 361.329 173.203 361.836C173.203 363.153 171.583 364.064 170.772 363.254Z" fill="black"/>
<path d="M559.9 354.949C560.305 346.542 560.204 345.935 557.975 344.314C555.646 342.693 555.646 342.693 558.279 342.693C560.406 342.693 562.33 344.314 567.293 350.29C570.737 354.442 573.674 357.886 573.775 357.886C574.484 357.886 573.674 345.124 572.864 344.517C571.142 343.402 572.965 342.491 575.396 343.2C577.118 343.808 577.32 344.111 576.206 344.82C575.092 345.428 574.89 347.859 575.092 354.847C575.193 359.81 574.991 363.963 574.586 363.963C574.079 363.862 571.041 360.418 567.698 356.265C561.622 348.568 561.621 348.568 561.318 356.265C561.115 360.519 560.71 363.963 560.305 363.963C559.9 363.963 559.697 359.912 559.9 354.949Z" fill="black"/>
<path d="M311.555 362.038C311.15 361.329 311.049 360.519 311.353 360.215C312.264 359.304 313.277 360.62 312.77 362.038C312.365 363.153 312.163 363.153 311.555 362.038Z" fill="black"/>
<path d="M423.877 361.937C423.574 361.431 424.181 360.924 425.397 360.924C426.612 360.924 427.22 361.431 426.916 361.937C426.612 362.545 425.903 362.95 425.397 362.95C424.89 362.95 424.181 362.545 423.877 361.937Z" fill="black"/>
<path d="M370.704 360.418C370.704 359.506 371.312 359.203 372.223 359.506C373.034 359.912 373.439 360.519 373.135 361.026C372.325 362.444 370.704 362.038 370.704 360.418Z" fill="black"/>
<path d="M475.227 359.81C475.43 359.202 476.038 358.797 476.544 358.797C477.051 358.797 477.658 359.202 477.861 359.81C478.063 360.418 477.456 360.924 476.544 360.924C475.633 360.924 475.025 360.418 475.227 359.81Z" fill="black"/>
<path d="M243.088 357.987C243.088 357.379 243.595 356.67 244.101 356.367C244.709 356.063 245.114 356.468 245.114 357.278C245.114 358.19 244.709 358.899 244.101 358.899C243.595 358.899 243.088 358.494 243.088 357.987Z" fill="black"/>
<path d="M95.4183 354.746C95.6209 354.138 96.2286 353.733 96.735 353.733C97.2414 353.733 97.8491 354.138 98.0517 354.746C98.2542 355.354 97.6465 355.86 96.735 355.86C95.8235 355.86 95.2158 355.354 95.4183 354.746Z" fill="black"/>
<path d="M170.772 354.138C169.658 353.024 170.165 351.809 171.684 351.809C172.494 351.809 173.203 352.214 173.203 352.72C173.203 354.037 171.583 354.949 170.772 354.138Z" fill="black"/>
<path d="M424.384 352.822C424.384 352.315 425.093 351.809 426.004 351.809C426.814 351.809 427.22 352.315 426.916 352.822C426.612 353.429 425.903 353.835 425.295 353.835C424.789 353.835 424.384 353.429 424.384 352.822Z" fill="black"/>
<path d="M310.947 351.201C310.947 349.783 311.251 349.783 312.467 350.796C313.277 351.505 313.986 352.214 313.986 352.417C313.986 352.619 313.277 352.822 312.467 352.822C311.656 352.822 310.947 352.113 310.947 351.201Z" fill="black"/>
<path d="M370.704 351.201C370.704 350.391 371.21 349.986 371.717 350.29C372.325 350.593 372.73 351.302 372.73 351.91C372.73 352.417 372.325 352.822 371.717 352.822C371.21 352.822 370.704 352.113 370.704 351.201Z" fill="black"/>
<path d="M475.227 350.695C475.43 350.087 476.038 349.682 476.544 349.682C477.051 349.682 477.658 350.087 477.861 350.695C478.063 351.302 477.456 351.809 476.544 351.809C475.633 351.809 475.025 351.302 475.227 350.695Z" fill="black"/>
<path d="M243.088 348.264C243.088 347.352 243.595 346.745 244.202 346.947C244.81 347.15 245.316 347.758 245.316 348.264C245.316 348.77 244.81 349.378 244.202 349.581C243.595 349.783 243.088 349.176 243.088 348.264Z" fill="black"/>
<path d="M95.4183 345.631C95.6209 345.023 96.2286 344.618 96.735 344.618C97.2414 344.618 97.8491 345.023 98.0517 345.631C98.2542 346.238 97.6465 346.745 96.735 346.745C95.8235 346.745 95.2158 346.238 95.4183 345.631Z" fill="black"/>
<path d="M170.772 345.023C169.658 343.909 170.165 342.693 171.684 342.693C172.494 342.693 173.203 343.099 173.203 343.605C173.203 344.922 171.583 345.833 170.772 345.023Z" fill="black"/>
<path d="M423.877 343.706C423.574 343.2 424.181 342.693 425.397 342.693C426.612 342.693 427.22 343.2 426.916 343.706C426.612 344.314 425.903 344.719 425.397 344.719C424.89 344.719 424.181 344.314 423.877 343.706Z" fill="black"/>
<path d="M310.947 342.693C310.947 342.187 311.353 341.681 311.859 341.681C312.467 341.681 313.176 342.187 313.479 342.693C313.783 343.301 313.378 343.706 312.568 343.706C311.656 343.706 310.947 343.301 310.947 342.693Z" fill="black"/>
<path d="M370.704 342.693C370.704 342.187 371.413 341.681 372.325 341.681C373.135 341.681 373.54 342.187 373.236 342.693C372.932 343.301 372.223 343.706 371.616 343.706C371.109 343.706 370.704 343.301 370.704 342.693Z" fill="black"/>
<path d="M475.025 341.174C475.025 340.364 475.734 339.655 476.544 339.655C477.354 339.655 478.063 340.364 478.063 341.174C478.063 341.984 477.354 342.693 476.544 342.693C475.734 342.693 475.025 341.984 475.025 341.174Z" fill="black"/>
<path d="M243.088 339.047C243.088 338.237 243.595 337.832 244.101 338.136C244.709 338.44 245.114 339.149 245.114 339.756C245.114 340.263 244.709 340.668 244.101 340.668C243.595 340.668 243.088 339.959 243.088 339.047Z" fill="black"/>
<path d="M95.2157 336.009C95.2157 334.287 97.4439 334.591 98.0516 336.414C98.2542 337.123 97.7478 337.629 96.8362 337.629C95.9247 337.629 95.2157 336.92 95.2157 336.009Z" fill="black"/>
<path d="M170.772 335.908C169.658 334.793 170.165 333.578 171.684 333.578C172.494 333.578 173.203 333.983 173.203 334.49C173.203 335.806 171.583 336.718 170.772 335.908Z" fill="black"/>
<path d="M522.121 320.816C492.547 309.675 479.785 305.32 477.861 305.624C475.228 306.131 475.025 305.928 475.025 303.092C475.025 300.965 475.43 300.054 476.342 300.357C531.237 320.715 563.85 332.97 564.66 333.679C565.268 334.287 565.268 334.895 564.66 335.502C564.052 336.11 547.644 330.438 522.121 320.816Z" fill="black"/>
<path d="M424.384 334.591C424.384 334.084 425.093 333.578 426.004 333.578C426.814 333.578 427.22 334.084 426.916 334.591C426.612 335.199 425.903 335.604 425.295 335.604C424.789 335.604 424.384 335.199 424.384 334.591Z" fill="black"/>
<path d="M310.441 333.578C310.137 333.072 310.745 332.565 311.96 332.565C313.176 332.565 313.783 333.072 313.479 333.578C313.176 334.186 312.467 334.591 311.96 334.591C311.454 334.591 310.745 334.186 310.441 333.578Z" fill="black"/>
<path d="M370.704 332.97C370.704 332.16 371.21 331.755 371.717 332.059C372.325 332.363 372.73 333.072 372.73 333.679C372.73 334.186 372.325 334.591 371.717 334.591C371.21 334.591 370.704 333.882 370.704 332.97Z" fill="black"/>
<path d="M475.025 332.059C475.025 331.249 475.734 330.54 476.544 330.54C477.354 330.54 478.063 331.249 478.063 332.059C478.063 332.869 477.354 333.578 476.544 333.578C475.734 333.578 475.025 332.869 475.025 332.059Z" fill="black"/>
<path d="M243.088 330.54C243.088 330.033 243.797 329.527 244.709 329.527C245.519 329.527 245.924 330.033 245.62 330.54C245.316 331.147 244.607 331.552 244 331.552C243.493 331.552 243.088 331.147 243.088 330.54Z" fill="black"/>
<path d="M95.2157 326.995C95.2157 326.184 95.9247 325.475 96.735 325.475C97.5452 325.475 98.2542 326.184 98.2542 326.995C98.2542 327.805 97.5452 328.514 96.735 328.514C95.9247 328.514 95.2157 327.805 95.2157 326.995Z" fill="black"/>
<path d="M170.772 326.792C169.658 325.678 170.165 324.463 171.684 324.463C172.494 324.463 173.203 324.868 173.203 325.374C173.203 326.691 171.583 327.602 170.772 326.792Z" fill="black"/>
<path d="M423.877 325.475C423.574 324.969 424.181 324.463 425.397 324.463C426.612 324.463 427.22 324.969 426.916 325.475C426.612 326.083 425.903 326.488 425.397 326.488C424.89 326.488 424.181 326.083 423.877 325.475Z" fill="black"/>
<path d="M310.947 323.956C310.947 323.146 311.454 322.437 311.96 322.437C312.568 322.437 312.973 323.146 312.973 323.956C312.973 324.766 312.568 325.475 311.96 325.475C311.454 325.475 310.947 324.766 310.947 323.956Z" fill="black"/>
<path d="M370.704 323.956C370.704 323.045 371.312 322.741 372.223 323.045C373.034 323.45 373.439 324.058 373.135 324.564C372.325 325.982 370.704 325.577 370.704 323.956Z" fill="black"/>
<path d="M475.025 322.842C475.025 321.931 475.531 321.424 476.24 321.627C478.063 322.234 478.367 324.463 476.645 324.463C475.734 324.463 475.025 323.754 475.025 322.842Z" fill="black"/>
<path d="M243.088 321.525C243.088 320.918 243.595 320.209 244.101 319.905C244.709 319.601 245.114 320.006 245.114 320.816C245.114 321.728 244.709 322.437 244.101 322.437C243.595 322.437 243.088 322.032 243.088 321.525Z" fill="black"/>
<path d="M95.2157 317.879C95.2157 317.069 95.9247 316.36 96.735 316.36C97.5452 316.36 98.2542 317.069 98.2542 317.879C98.2542 318.69 97.5452 319.398 96.735 319.398C95.9247 319.398 95.2157 318.69 95.2157 317.879Z" fill="black"/>
<path d="M170.772 317.677C169.658 316.563 170.165 315.347 171.684 315.347C172.494 315.347 173.203 315.752 173.203 316.259C173.203 317.575 171.583 318.487 170.772 317.677Z" fill="black"/>
<path d="M424.384 316.36C424.384 315.854 424.89 315.347 425.397 315.347C426.004 315.347 426.409 315.854 426.409 316.36C426.409 316.968 426.004 317.373 425.397 317.373C424.89 317.373 424.384 316.968 424.384 316.36Z" fill="black"/>
<path d="M310.947 315.347C310.947 314.841 311.656 314.334 312.568 314.334C313.378 314.334 313.783 314.841 313.479 315.347C313.176 315.955 312.467 316.36 311.859 316.36C311.353 316.36 310.947 315.955 310.947 315.347Z" fill="black"/>
<path d="M370.704 314.74C370.704 313.929 371.21 313.524 371.717 313.828C372.325 314.132 372.73 314.841 372.73 315.448C372.73 315.955 372.325 316.36 371.717 316.36C371.21 316.36 370.704 315.651 370.704 314.74Z" fill="black"/>
<path d="M475.025 313.828C475.025 313.018 475.734 312.309 476.544 312.309C477.354 312.309 478.063 313.018 478.063 313.828C478.063 314.638 477.354 315.347 476.544 315.347C475.734 315.347 475.025 314.638 475.025 313.828Z" fill="black"/>
<path d="M243.088 311.802C243.088 310.891 243.595 310.283 244.202 310.486C244.81 310.688 245.316 311.296 245.316 311.802C245.316 312.309 244.81 312.916 244.202 313.119C243.595 313.322 243.088 312.714 243.088 311.802Z" fill="black"/>
<path d="M95.2157 308.663C95.2157 306.941 97.4439 307.245 98.0516 309.068C98.2542 309.777 97.7478 310.283 96.8362 310.283C95.9247 310.283 95.2157 309.574 95.2157 308.663Z" fill="black"/>
<path d="M170.772 308.561C169.658 307.447 170.165 306.232 171.684 306.232C172.494 306.232 173.203 306.637 173.203 307.143C173.203 308.46 171.583 309.372 170.772 308.561Z" fill="black"/>
<path d="M424.384 307.245C424.384 306.738 425.093 306.232 426.004 306.232C426.814 306.232 427.22 306.738 426.916 307.245C426.612 307.852 425.903 308.257 425.295 308.257C424.789 308.257 424.384 307.852 424.384 307.245Z" fill="black"/>
<path d="M310.947 306.333C310.947 305.725 311.454 305.016 311.96 304.713C312.568 304.409 312.973 304.814 312.973 305.624C312.973 306.536 312.568 307.245 311.96 307.245C311.454 307.245 310.947 306.839 310.947 306.333Z" fill="black"/>
<path d="M370.704 306.232C370.704 305.725 371.413 305.219 372.325 305.219C373.135 305.219 373.54 305.725 373.236 306.232C372.932 306.839 372.223 307.245 371.616 307.245C371.109 307.245 370.704 306.839 370.704 306.232Z" fill="black"/>
<path d="M243.088 302.586C243.088 301.168 243.392 301.168 244.607 302.18C245.418 302.889 246.127 303.598 246.127 303.801C246.127 304.004 245.418 304.206 244.607 304.206C243.797 304.206 243.088 303.497 243.088 302.586Z" fill="black"/>
<path d="M95.2157 299.547C95.2157 297.825 97.4439 298.129 98.0516 299.952C98.2542 300.661 97.7478 301.168 96.8362 301.168C95.9247 301.168 95.2157 300.459 95.2157 299.547Z" fill="black"/>
<path d="M170.772 299.446C169.658 298.332 170.165 297.116 171.684 297.116C172.494 297.116 173.203 297.522 173.203 298.028C173.203 299.345 171.583 300.256 170.772 299.446Z" fill="black"/>
<path d="M424.384 298.129C424.384 297.623 425.093 297.116 426.004 297.116C426.814 297.116 427.22 297.623 426.916 298.129C426.612 298.737 425.903 299.142 425.295 299.142C424.789 299.142 424.384 298.737 424.384 298.129Z" fill="black"/>
<path d="M310.947 297.116C310.947 296.61 311.656 296.104 312.568 296.104C313.378 296.104 313.783 296.61 313.479 297.116C313.176 297.724 312.467 298.129 311.859 298.129C311.353 298.129 310.947 297.724 310.947 297.116Z" fill="black"/>
<path d="M370.704 296.61C370.704 295.698 371.312 295.395 372.223 295.698C373.034 296.104 373.439 296.711 373.135 297.218C372.325 298.636 370.704 298.23 370.704 296.61Z" fill="black"/>
<path d="M243.088 294.078C243.088 293.571 243.797 293.065 244.709 293.065C245.519 293.065 245.924 293.571 245.62 294.078C245.316 294.686 244.607 295.091 244 295.091C243.493 295.091 243.088 294.686 243.088 294.078Z" fill="black"/>
<path d="M95.2157 290.533C95.2157 289.723 95.9247 289.014 96.735 289.014C97.5452 289.014 98.2542 289.723 98.2542 290.533C98.2542 291.343 97.5452 292.052 96.735 292.052C95.9247 292.052 95.2157 291.343 95.2157 290.533Z" fill="black"/>
<path d="M170.772 290.33C169.658 289.216 170.165 288.001 171.684 288.001C172.494 288.001 173.203 288.406 173.203 288.912C173.203 290.229 171.583 291.141 170.772 290.33Z" fill="black"/>
<path d="M471.683 282.228C466.922 270.682 466.821 270.58 470.265 270.378C472.898 270.175 474.113 271.289 471.987 271.998C470.974 272.302 475.937 285.975 477.051 285.975C477.456 285.975 478.975 282.937 480.494 279.189C482.621 274.024 482.925 272.302 481.912 271.694C479.988 270.479 481.305 269.871 484.444 270.479C486.369 270.884 486.976 271.289 486.065 271.897C485.356 272.302 483.128 276.657 481.102 281.519C479.076 286.38 476.949 290.533 476.443 290.736C475.937 290.938 473.81 287.089 471.683 282.228Z" fill="black"/>
<path d="M423.877 289.014C423.574 288.507 424.181 288.001 425.397 288.001C426.612 288.001 427.22 288.507 426.916 289.014C426.612 289.621 425.903 290.027 425.397 290.027C424.89 290.027 424.181 289.621 423.877 289.014Z" fill="black"/>
<path d="M310.947 288.001C310.947 287.495 311.656 286.988 312.568 286.988C313.378 286.988 313.783 287.495 313.479 288.001C313.176 288.609 312.467 289.014 311.859 289.014C311.353 289.014 310.947 288.609 310.947 288.001Z" fill="black"/>
<path d="M370.704 287.495C370.704 286.583 371.312 286.279 372.223 286.583C373.034 286.988 373.439 287.596 373.135 288.102C372.325 289.52 370.704 289.115 370.704 287.495Z" fill="black"/>
<path d="M243.291 285.064C243.696 283.747 245.114 283.443 245.215 284.659C245.215 285.064 244.709 285.57 244.101 285.874C243.392 286.077 242.987 285.671 243.291 285.064Z" fill="black"/>
<path d="M95.2157 281.418C95.2157 280.607 95.9247 279.898 96.735 279.898C97.5452 279.898 98.2542 280.607 98.2542 281.418C98.2542 282.228 97.5452 282.937 96.735 282.937C95.9247 282.937 95.2157 282.228 95.2157 281.418Z" fill="black"/>
<path d="M170.772 281.215C169.658 280.101 170.165 278.886 171.684 278.886C172.494 278.886 173.203 279.291 173.203 279.797C173.203 281.114 171.583 282.025 170.772 281.215Z" fill="black"/>
<path d="M424.384 279.898C424.384 279.392 425.093 278.886 426.004 278.886C426.814 278.886 427.22 279.392 426.916 279.898C426.612 280.506 425.903 280.911 425.295 280.911C424.789 280.911 424.384 280.506 424.384 279.898Z" fill="black"/>
<path d="M310.947 278.886C310.947 278.379 311.656 277.873 312.568 277.873C313.378 277.873 313.783 278.379 313.479 278.886C313.176 279.493 312.467 279.898 311.859 279.898C311.353 279.898 310.947 279.493 310.947 278.886Z" fill="black"/>
<path d="M370.704 278.379C370.704 277.468 371.312 277.164 372.223 277.468C373.034 277.873 373.439 278.48 373.135 278.987C372.325 280.405 370.704 280 370.704 278.379Z" fill="black"/>
<path d="M243.088 275.341C243.088 274.429 243.595 273.821 244.202 274.024C244.81 274.227 245.316 274.834 245.316 275.341C245.316 275.847 244.81 276.455 244.202 276.657C243.595 276.86 243.088 276.252 243.088 275.341Z" fill="black"/>
<path d="M95.2157 272.302C95.2157 271.492 95.9247 270.783 96.735 270.783C97.5452 270.783 98.2542 271.492 98.2542 272.302C98.2542 273.112 97.5452 273.821 96.735 273.821C95.9247 273.821 95.2157 273.112 95.2157 272.302Z" fill="black"/>
<path d="M170.772 272.1C169.658 270.985 170.165 269.77 171.684 269.77C172.494 269.77 173.203 270.175 173.203 270.682C173.203 271.998 171.583 272.91 170.772 272.1Z" fill="black"/>
<path d="M424.384 270.783C424.384 270.277 425.093 269.77 426.004 269.77C426.814 269.77 427.22 270.277 426.916 270.783C426.612 271.391 425.903 271.796 425.295 271.796C424.789 271.796 424.384 271.391 424.384 270.783Z" fill="black"/>
<path d="M310.947 269.264C310.947 268.453 311.454 267.744 311.96 267.744C312.568 267.744 312.973 268.453 312.973 269.264C312.973 270.074 312.568 270.783 311.96 270.783C311.454 270.783 310.947 270.074 310.947 269.264Z" fill="black"/>
<path d="M370.704 269.77C370.704 269.264 371.413 268.757 372.325 268.757C373.135 268.757 373.54 269.264 373.236 269.77C372.932 270.378 372.223 270.783 371.616 270.783C371.109 270.783 370.704 270.378 370.704 269.77Z" fill="black"/>
<path d="M243.088 266.124C243.088 265.314 243.595 264.909 244.101 265.212C244.709 265.516 245.114 266.225 245.114 266.833C245.114 267.339 244.709 267.744 244.101 267.744C243.595 267.744 243.088 267.035 243.088 266.124Z" fill="black"/>
<path d="M95.2157 263.085C95.2157 261.364 97.4439 261.667 98.0516 263.491C98.2542 264.2 97.7478 264.706 96.8362 264.706C95.9247 264.706 95.2157 263.997 95.2157 263.085Z" fill="black"/>
<path d="M170.772 262.984C169.658 261.87 170.165 260.655 171.684 260.655C172.494 260.655 173.203 261.06 173.203 261.566C173.203 262.883 171.583 263.794 170.772 262.984Z" fill="black"/>
<path d="M424.384 261.668C424.384 261.161 424.89 260.655 425.397 260.655C426.004 260.655 426.409 261.161 426.409 261.668C426.409 262.275 426.004 262.68 425.397 262.68C424.89 262.68 424.384 262.275 424.384 261.668Z" fill="black"/>
<path d="M310.441 260.655C310.137 260.148 310.745 259.642 311.96 259.642C313.176 259.642 313.783 260.148 313.479 260.655C313.176 261.262 312.467 261.668 311.96 261.668C311.454 261.668 310.745 261.262 310.441 260.655Z" fill="black"/>
<path d="M370.704 260.047C370.704 259.237 371.21 258.832 371.717 259.135C372.325 259.439 372.73 260.148 372.73 260.756C372.73 261.262 372.325 261.668 371.717 261.668C371.21 261.668 370.704 260.959 370.704 260.047Z" fill="black"/>
<path d="M243.088 257.11C243.088 256.198 243.696 255.894 244.607 256.198C245.418 256.603 245.823 257.211 245.519 257.718C244.709 259.135 243.088 258.73 243.088 257.11Z" fill="black"/>
<path d="M469.961 254.578C467.429 253.059 455.984 246.374 444.336 239.892C426.004 229.561 421.143 226.016 425.7 226.32C427.827 226.421 477.354 255.084 477.253 256.097C477.051 258.021 474.519 257.515 469.961 254.578Z" fill="black"/>
<path d="M95.2157 254.071C95.2157 253.261 95.9247 252.552 96.735 252.552C97.5452 252.552 98.2542 253.261 98.2542 254.071C98.2542 254.882 97.5452 255.591 96.735 255.591C95.9247 255.591 95.2157 254.882 95.2157 254.071Z" fill="black"/>
<path d="M170.772 253.869C169.658 252.755 170.165 251.539 171.684 251.539C172.494 251.539 173.203 251.944 173.203 252.451C173.203 253.767 171.583 254.679 170.772 253.869Z" fill="black"/>
<path d="M424.384 252.552C424.384 252.046 425.093 251.539 426.004 251.539C426.814 251.539 427.22 252.046 426.916 252.552C426.612 253.16 425.903 253.565 425.295 253.565C424.789 253.565 424.384 253.16 424.384 252.552Z" fill="black"/>
<path d="M310.947 251.641C310.947 251.033 311.454 250.324 311.96 250.02C312.568 249.716 312.973 250.121 312.973 250.932C312.973 251.843 312.568 252.552 311.96 252.552C311.454 252.552 310.947 252.147 310.947 251.641Z" fill="black"/>
<path d="M370.704 251.033C370.704 250.121 371.312 249.817 372.223 250.121C373.034 250.526 373.439 251.134 373.135 251.641C372.325 253.059 370.704 252.653 370.704 251.033Z" fill="black"/>
<path d="M243.088 248.602C243.088 247.994 243.595 247.285 244.101 246.982C244.709 246.678 245.114 247.083 245.114 247.893C245.114 248.805 244.709 249.514 244.101 249.514C243.595 249.514 243.088 249.108 243.088 248.602Z" fill="black"/>
<path d="M94.7093 245.564C94.0003 244.348 95.9247 243.133 97.2414 243.943C98.3555 244.652 97.6465 246.475 96.2286 246.475C95.7221 246.475 95.1145 246.07 94.7093 245.564Z" fill="black"/>
<path d="M170.772 244.753C169.658 243.639 170.165 242.424 171.684 242.424C172.494 242.424 173.203 242.829 173.203 243.335C173.203 244.652 171.583 245.564 170.772 244.753Z" fill="black"/>
<path d="M424.384 243.437C424.384 242.93 425.093 242.424 426.004 242.424C426.814 242.424 427.22 242.93 426.916 243.437C426.612 244.044 425.903 244.449 425.295 244.449C424.789 244.449 424.384 244.044 424.384 243.437Z" fill="black"/>
<path d="M310.947 242.424C310.947 241.917 311.656 241.411 312.568 241.411C313.378 241.411 313.783 241.917 313.479 242.424C313.176 243.032 312.467 243.437 311.859 243.437C311.353 243.437 310.947 243.032 310.947 242.424Z" fill="black"/>
<path d="M370.704 241.816C370.704 241.006 371.21 240.601 371.717 240.905C372.325 241.208 372.73 241.917 372.73 242.525C372.73 243.032 372.325 243.437 371.717 243.437C371.21 243.437 370.704 242.728 370.704 241.816Z" fill="black"/>
<path d="M243.088 238.879C243.088 237.967 243.595 237.36 244.202 237.562C244.81 237.765 245.316 238.373 245.316 238.879C245.316 239.385 244.81 239.993 244.202 240.196C243.595 240.398 243.088 239.79 243.088 238.879Z" fill="black"/>
<path d="M95.2157 235.84C95.2157 235.03 95.7222 234.321 96.2286 234.321C96.8363 234.321 97.2414 235.03 97.2414 235.84C97.2414 236.651 96.8363 237.36 96.2286 237.36C95.7222 237.36 95.2157 236.651 95.2157 235.84Z" fill="black"/>
<path d="M170.772 235.638C169.658 234.524 170.165 233.308 171.684 233.308C172.494 233.308 173.203 233.714 173.203 234.22C173.203 235.537 171.583 236.448 170.772 235.638Z" fill="black"/>
<path d="M424.384 234.321C424.384 233.815 425.093 233.308 426.004 233.308C426.814 233.308 427.22 233.815 426.916 234.321C426.612 234.929 425.903 235.334 425.295 235.334C424.789 235.334 424.384 234.929 424.384 234.321Z" fill="black"/>
<path d="M310.947 233.41C310.947 232.802 311.454 232.093 311.96 231.789C312.568 231.485 312.973 231.89 312.973 232.701C312.973 233.612 312.568 234.321 311.96 234.321C311.454 234.321 310.947 233.916 310.947 233.41Z" fill="black"/>
<path d="M370.704 232.802C370.704 231.992 371.21 231.283 371.717 231.283C372.325 231.283 372.73 231.992 372.73 232.802C372.73 233.612 372.325 234.321 371.717 234.321C371.21 234.321 370.704 233.612 370.704 232.802Z" fill="black"/>
<path d="M243.088 229.764C243.088 228.953 243.493 228.244 244 228.244C244.506 228.244 245.114 228.953 245.519 229.764C245.823 230.675 245.519 231.283 244.607 231.283C243.797 231.283 243.088 230.574 243.088 229.764Z" fill="black"/>
<path d="M170.772 226.522C169.658 225.408 170.165 224.193 171.684 224.193C172.494 224.193 173.203 224.598 173.203 225.105C173.203 226.421 171.583 227.333 170.772 226.522Z" fill="black"/>
<path d="M310.947 224.193C310.947 223.687 311.656 223.18 312.568 223.18C313.378 223.18 313.783 223.687 313.479 224.193C313.176 224.801 312.467 225.206 311.859 225.206C311.353 225.206 310.947 224.801 310.947 224.193Z" fill="black"/>
<path d="M370.704 223.687C370.704 222.876 371.21 222.167 371.717 222.167C372.325 222.167 372.73 222.876 372.73 223.687C372.73 224.497 372.325 225.206 371.717 225.206C371.21 225.206 370.704 224.497 370.704 223.687Z" fill="black"/>
<path d="M243.088 220.648C243.088 219.737 243.595 219.129 244.202 219.331C244.81 219.534 245.316 220.142 245.316 220.648C245.316 221.155 244.81 221.762 244.202 221.965C243.595 222.167 243.088 221.56 243.088 220.648Z" fill="black"/>
<path d="M90.1516 220.04C90.1516 219.534 91.367 219.129 92.9875 219.129C97.2414 219.028 100.381 216.09 100.989 211.33C101.9 204.139 97.2414 199.075 91.0632 200.594C89.3414 201.101 89.1388 202.113 89.1388 210.621C89.1388 220.142 89.1388 220.142 86.4042 220.04C84.7836 220.04 84.1759 219.737 84.8849 219.433C86.4042 218.825 86.6067 200.898 85.0875 200.898C84.5811 200.898 84.0747 200.392 84.0747 199.784C84.0747 198.163 98.7606 199.278 100.888 200.999C105.952 205.152 105.749 214.267 100.482 217.711C97.444 219.737 90.1516 221.357 90.1516 220.04Z" fill="black"/>
<path d="M427.422 218.42C422.459 216.597 420.738 210.722 423.979 206.165C425.093 204.544 426.511 203.937 429.549 203.937C433.094 203.937 433.803 204.342 434.917 207.076C436.639 211.128 435.829 214.672 432.689 217.103C430.056 219.23 429.853 219.331 427.422 218.42ZM431.879 215.989C433.499 213.66 433.195 208.595 431.372 206.367C429.954 204.645 426.815 204.544 425.903 206.063C424.485 208.292 424.991 214.065 426.916 216.09C429.245 218.622 429.954 218.622 431.879 215.989Z" fill="black"/>
<path d="M170.772 217.407C169.658 216.293 170.165 215.078 171.684 215.078C172.494 215.078 173.203 215.483 173.203 215.989C173.203 217.306 171.583 218.217 170.772 217.407Z" fill="black"/>
<path d="M414.964 217.407C414.053 215.989 413.952 203.43 414.762 201.708C415.673 199.48 417.8 199.278 416.889 201.404C416.484 202.417 416.99 202.924 418.307 202.924C419.421 202.924 420.332 203.43 420.332 203.937C420.332 204.544 419.725 204.949 418.914 204.949C418.003 204.949 417.395 206.469 417.091 209.304C416.585 213.963 417.8 217.508 419.522 216.496C420.231 216.09 420.332 216.192 419.927 216.901C419.117 218.217 415.673 218.521 414.964 217.407Z" fill="black"/>
<path d="M310.947 215.078C310.947 214.571 311.656 214.065 312.568 214.065C313.378 214.065 313.783 214.571 313.479 215.078C313.176 215.685 312.467 216.09 311.859 216.09C311.353 216.09 310.947 215.685 310.947 215.078Z" fill="black"/>
<path d="M370.704 214.571C370.704 213.761 371.21 213.052 371.717 213.052C372.325 213.052 372.73 213.761 372.73 214.571C372.73 215.381 372.325 216.09 371.717 216.09C371.21 216.09 370.704 215.381 370.704 214.571Z" fill="black"/>
<path d="M243.088 211.533C243.088 210.722 243.595 210.013 244.101 210.013C244.709 210.013 245.114 210.722 245.114 211.533C245.114 212.343 244.709 213.052 244.101 213.052C243.595 213.052 243.088 212.343 243.088 211.533Z" fill="black"/>
<path d="M170.772 208.292C169.658 207.178 170.165 205.962 171.684 205.962C172.494 205.962 173.203 206.367 173.203 206.874C173.203 208.19 171.583 209.102 170.772 208.292Z" fill="black"/>
<path d="M310.947 205.962C310.947 205.456 311.656 204.949 312.568 204.949C313.378 204.949 313.783 205.456 313.479 205.962C313.176 206.57 312.467 206.975 311.859 206.975C311.353 206.975 310.947 206.57 310.947 205.962Z" fill="black"/>
<path d="M370.704 205.456C370.704 204.544 371.21 203.937 371.818 204.139C372.426 204.342 372.932 204.949 372.932 205.456C372.932 205.962 372.426 206.57 371.818 206.772C371.21 206.975 370.704 206.367 370.704 205.456Z" fill="black"/>
<path d="M243.088 202.417C243.088 201.506 243.595 200.898 244.202 201.101C244.81 201.303 245.316 201.911 245.316 202.417C245.316 202.924 244.81 203.531 244.202 203.734C243.595 203.937 243.088 203.329 243.088 202.417Z" fill="black"/>
<path d="M170.772 199.176C169.658 198.062 170.165 196.847 171.684 196.847C172.494 196.847 173.203 197.252 173.203 197.758C173.203 199.075 171.583 199.986 170.772 199.176Z" fill="black"/>
<path d="M310.947 196.34C310.947 195.53 311.454 194.821 311.96 194.821C312.568 194.821 312.973 195.53 312.973 196.34C312.973 197.151 312.568 197.86 311.96 197.86C311.454 197.86 310.947 197.151 310.947 196.34Z" fill="black"/>
<path d="M370.704 196.847C370.704 196.34 371.413 195.834 372.325 195.834C373.135 195.834 373.54 196.34 373.236 196.847C372.932 197.454 372.223 197.86 371.616 197.86C371.109 197.86 370.704 197.454 370.704 196.847Z" fill="black"/>
<path d="M243.088 193.302C243.088 192.492 243.595 191.783 244.101 191.783C244.709 191.783 245.114 192.492 245.114 193.302C245.114 194.112 244.709 194.821 244.101 194.821C243.595 194.821 243.088 194.112 243.088 193.302Z" fill="black"/>
<path d="M87.6196 191.783C87.3157 191.175 88.9363 189.858 91.367 188.845C102.204 184.186 155.074 160.891 160.847 158.258C169.253 154.409 172.19 153.7 172.19 155.422C172.19 156.232 166.822 159.17 159.733 162.309C110.712 183.984 90.3542 192.795 89.1388 192.795C88.6324 192.795 87.9234 192.289 87.6196 191.783Z" fill="black"/>
<path d="M170.772 190.061C169.658 188.947 170.165 187.731 171.684 187.731C172.494 187.731 173.203 188.136 173.203 188.643C173.203 189.96 171.583 190.871 170.772 190.061Z" fill="black"/>
<path d="M310.441 187.731C310.137 187.225 310.745 186.718 311.96 186.718C313.176 186.718 313.783 187.225 313.479 187.731C313.176 188.339 312.467 188.744 311.96 188.744C311.454 188.744 310.745 188.339 310.441 187.731Z" fill="black"/>
<path d="M370.704 187.124C370.704 186.313 371.21 185.908 371.717 186.212C372.325 186.516 372.73 187.225 372.73 187.833C372.73 188.339 372.325 188.744 371.717 188.744C371.21 188.744 370.704 188.035 370.704 187.124Z" fill="black"/>
<path d="M243.088 184.186C243.088 183.376 243.595 182.667 244.101 182.667C244.709 182.667 245.114 183.376 245.114 184.186C245.114 184.997 244.709 185.706 244.101 185.706C243.595 185.706 243.088 184.997 243.088 184.186Z" fill="black"/>
<path d="M395.518 166.462C382.149 157.549 371.008 149.548 370.907 148.636C370.603 147.32 370.805 147.218 372.932 148.332C376.781 150.358 423.371 181.654 423.371 182.161C423.371 184.288 416.585 180.439 395.518 166.462Z" fill="black"/>
<path d="M170.772 180.743C170.367 180.034 170.266 179.224 170.57 178.92C171.481 178.008 172.494 179.325 171.988 180.743C171.583 181.857 171.38 181.857 170.772 180.743Z" fill="black"/>
<path d="M310.947 178.109C310.947 177.299 311.454 176.59 311.96 176.59C312.568 176.59 312.973 177.299 312.973 178.109C312.973 178.92 312.568 179.629 311.96 179.629C311.454 179.629 310.947 178.92 310.947 178.109Z" fill="black"/>
<path d="M370.704 178.008C370.704 177.198 371.21 176.793 371.717 177.097C372.325 177.401 372.73 178.109 372.73 178.717C372.73 179.224 372.325 179.629 371.717 179.629C371.21 179.629 370.704 178.92 370.704 178.008Z" fill="black"/>
<path d="M243.088 175.071C243.088 174.261 243.595 173.552 244.101 173.552C244.709 173.552 245.114 174.261 245.114 175.071C245.114 175.881 244.709 176.59 244.101 176.59C243.595 176.59 243.088 175.881 243.088 175.071Z" fill="black"/>
<path d="M170.165 171.02C170.165 170.108 170.671 169.5 171.279 169.703C171.887 169.906 172.393 170.513 172.393 171.02C172.393 171.526 171.887 172.134 171.279 172.336C170.671 172.539 170.165 171.931 170.165 171.02Z" fill="black"/>
<path d="M310.441 169.602C309.833 168.488 311.353 167.272 312.365 168.184C313.277 169.095 313.074 170.513 312.061 170.513C311.454 170.513 310.846 170.108 310.441 169.602Z" fill="black"/>
<path d="M370.704 169.602C370.704 168.994 371.21 168.285 371.717 167.981C372.325 167.677 372.73 168.083 372.73 168.893C372.73 169.804 372.325 170.513 371.717 170.513C371.21 170.513 370.704 170.108 370.704 169.602Z" fill="black"/>
<path d="M243.088 165.956C243.088 165.044 243.595 164.436 244.202 164.639C244.81 164.841 245.316 165.449 245.316 165.956C245.316 166.462 244.81 167.07 244.202 167.272C243.595 167.475 243.088 166.867 243.088 165.956Z" fill="black"/>
<path d="M170.772 162.512C170.367 161.803 170.266 160.993 170.57 160.689C171.481 159.777 172.494 161.094 171.988 162.512C171.583 163.626 171.38 163.626 170.772 162.512Z" fill="black"/>
<path d="M310.441 160.486C309.833 159.372 311.353 158.157 312.365 159.068C313.277 159.98 313.074 161.398 312.061 161.398C311.454 161.398 310.846 160.993 310.441 160.486Z" fill="black"/>
<path d="M370.704 160.385C370.704 159.879 371.21 159.372 371.717 159.372C372.325 159.372 372.73 159.879 372.73 160.385C372.73 160.993 372.325 161.398 371.717 161.398C371.21 161.398 370.704 160.993 370.704 160.385Z" fill="black"/>
<path d="M243.088 156.84C243.088 156.03 243.595 155.321 244.101 155.321C244.709 155.321 245.114 156.03 245.114 156.84C245.114 157.65 244.709 158.359 244.101 158.359C243.595 158.359 243.088 157.65 243.088 156.84Z" fill="black"/>
<path d="M243.088 147.725C243.088 146.914 243.595 146.206 244.101 146.206C244.709 146.206 245.114 146.914 245.114 147.725C245.114 148.535 244.709 149.244 244.101 149.244C243.595 149.244 243.088 148.535 243.088 147.725Z" fill="black"/>
<path d="M325.836 147.117C324.418 146.307 324.317 145.699 325.228 143.876C326.444 141.749 326.444 141.749 327.254 143.977C328.064 146.003 328.773 146.307 332.419 146.003C335.559 145.8 336.876 145.193 337.078 143.977C337.382 142.458 336.673 142.154 333.736 142.154C331.71 142.154 329.178 141.648 328.064 141.141C326.039 140.027 325.33 137.09 327.153 137.09C327.76 137.09 328.165 137.597 328.165 138.103C328.165 138.711 329.989 139.116 332.115 139.116C338.699 139.116 340.319 141.952 336.471 146.509C334.749 148.434 328.773 148.839 325.836 147.117Z" fill="black"/>
<path d="M164.696 134.254C165.404 125.544 165.303 125.139 162.974 123.62C160.644 121.898 160.644 121.898 163.278 121.898C165.405 121.898 167.329 123.518 172.292 129.494C175.735 133.646 178.774 137.09 178.976 137.09C179.584 137.09 178.571 125.848 177.761 123.721C176.951 121.695 178.774 121.29 181.306 122.911C182.623 123.822 182.623 123.923 181.306 123.923C179.888 123.923 179.787 125.341 180.09 133.545C180.394 138.812 180.09 143.167 179.685 143.167C179.179 143.066 176.039 139.622 172.697 135.47C166.62 127.772 166.62 127.772 165.911 134.254C165.506 137.698 165.303 141.243 165.607 141.952C165.81 142.559 165.607 143.167 165.101 143.167C164.493 143.167 164.392 139.723 164.696 134.254Z" fill="black"/>
<path d="M312.467 139.723C309.124 136.381 309.124 131.722 312.467 128.38C314.391 126.455 315.505 126.05 317.733 126.557C320.367 127.266 323 129.494 323.101 131.317C323.101 131.722 321.987 132.026 320.569 132.026C318.746 132.026 318.037 131.52 318.037 130C318.037 127.873 314.695 127.063 313.479 128.987C313.176 129.595 313.783 130 314.897 130C316.113 130 317.024 130.507 317.024 131.114C317.024 131.722 316.214 131.925 315.1 131.52C312.669 130.811 311.758 133.039 313.378 136.179C314.695 138.913 318.442 139.926 320.67 138.103C321.481 137.394 322.088 137.293 322.088 137.9C322.088 139.217 320.063 140.736 317.328 141.547C315.606 142.053 314.391 141.648 312.467 139.723Z" fill="black"/>
<path d="M370.198 136.482C368.678 133.14 366.754 128.684 365.842 126.455C365.032 124.227 363.817 122.1 363.209 121.695C362.5 121.189 362.5 120.885 363.108 120.784C363.716 120.784 365.336 120.581 366.957 120.378C369.489 120.075 370.907 121.29 368.678 122.1C367.666 122.404 372.628 136.077 373.743 136.077C374.958 136.077 379.921 122.404 378.807 122.1C376.68 121.391 377.895 120.176 380.731 120.277C383.263 120.378 383.567 120.581 382.453 121.898C381.744 122.708 379.414 127.57 377.287 132.532C375.262 137.596 373.337 141.85 373.135 142.053C372.932 142.255 371.616 139.723 370.198 136.482Z" fill="black"/>
<path d="M288.463 140.23C289.779 139.42 290.286 135.064 289.881 126.861C289.678 123.113 289.172 121.999 287.45 121.087C285.222 120.075 285.222 119.973 288.159 119.973C290.792 119.872 292.21 121.087 297.679 127.772C304.06 135.571 304.06 135.571 303.655 127.772C303.351 120.075 303.351 119.872 305.681 119.872C307.909 119.872 307.909 119.973 306.39 121.594C304.972 123.012 304.769 124.835 305.073 132.229C305.276 137.09 305.174 141.141 304.87 141.141C304.567 141.141 301.629 138.002 298.388 134.052C295.249 130.203 292.21 126.962 291.805 126.962C290.59 126.962 290.995 139.521 292.21 140.331C292.717 140.736 291.906 141.141 290.184 141.141C288.26 141.141 287.652 140.838 288.463 140.23Z" fill="black"/>
<path d="M243.088 138.609C243.088 137.799 243.595 137.09 244.101 137.09C244.709 137.09 245.114 137.799 245.114 138.609C245.114 139.42 244.709 140.129 244.101 140.129C243.595 140.129 243.088 139.42 243.088 138.609Z" fill="black"/>
<path d="M328.368 135.47C325.633 133.545 325.431 129.393 328.064 127.975C330.495 126.759 332.318 126.658 330.292 127.873C328.571 128.987 328.469 134.052 330.191 135.064C333.635 137.191 335.964 131.114 333.027 128.177C332.014 127.164 332.419 126.962 334.951 127.164C336.876 127.266 337.889 127.772 337.483 128.481C337.18 128.987 336.977 130.507 337.078 131.722C337.281 133.039 336.471 134.457 335.053 135.47C332.217 137.495 331.204 137.495 328.368 135.47Z" fill="black"/>
<path d="M243.595 129.899C242.582 128.38 243.898 127.367 245.215 128.684C245.924 129.393 245.924 130 245.316 130.405C244.709 130.709 243.898 130.507 243.595 129.899Z" fill="black"/>
<path d="M243.088 120.378C243.088 119.467 243.595 118.859 244.202 119.062C244.81 119.264 245.316 119.872 245.316 120.378C245.316 120.885 244.81 121.493 244.202 121.695C243.595 121.898 243.088 121.29 243.088 120.378Z" fill="black"/>
<path d="M169.76 117.137C168.342 115.618 169.557 114.605 176.039 111.567C179.787 109.845 187.585 106.199 193.46 103.464C199.334 100.628 209.564 95.9694 216.248 93.0322C222.933 90.095 231.947 86.0437 236.302 84.0181C243.493 80.777 244.709 80.4732 248.051 81.3847C250.178 81.8911 254.128 82.8027 256.863 83.4104C259.597 83.9168 265.978 85.2335 270.941 86.3476C276.005 87.4617 299.199 92.5258 322.595 97.5899C372.831 108.528 369.084 107.516 367.666 109.237C366.855 110.149 365.64 110.352 363.31 109.744C361.487 109.339 352.372 107.313 342.851 105.287C333.432 103.262 310.34 98.1976 291.704 94.1463C273.068 89.9937 257.673 86.7527 257.47 86.854C257.369 87.0566 268.814 91.6143 282.791 96.9822C316.923 110.25 317.632 110.554 316.214 111.972C315.404 112.782 312.061 111.972 303.149 108.427C296.565 105.895 281.17 99.9194 268.915 95.0579C256.66 90.2976 245.722 86.0437 244.506 85.5373C242.987 84.8283 240.759 85.436 235.897 87.6642C223.034 93.7412 216.653 96.5771 216.248 96.5771C216.046 96.5771 210.576 99.1092 204.094 102.148C197.511 105.186 192.042 107.718 191.839 107.718C191.637 107.718 187.99 109.44 183.635 111.567C172.089 117.137 170.469 117.745 169.76 117.137Z" fill="black"/>
<path d="M243.595 111.668C242.582 110.149 243.898 109.136 245.215 110.453C245.924 111.162 245.924 111.769 245.316 112.175C244.709 112.478 243.898 112.276 243.595 111.668Z" fill="black"/>
<path d="M243.088 102.148C243.088 101.236 243.595 100.628 244.202 100.831C244.81 101.034 245.316 101.641 245.316 102.148C245.316 102.654 244.81 103.262 244.202 103.464C243.595 103.667 243.088 103.059 243.088 102.148Z" fill="black"/>
<path d="M243.696 93.6399C243.291 92.9309 243.189 92.1207 243.493 91.8168C244.405 90.9053 245.418 92.222 244.911 93.6399C244.506 94.754 244.304 94.754 243.696 93.6399Z" fill="black"/>
<path d="M241.569 68.6231C240.759 66.5975 240.05 64.7744 240.05 64.5719C240.05 64.3693 238.733 61.3308 237.011 57.8872C235.391 54.4436 233.973 51.5064 233.973 51.3039C233.973 51.1013 235.391 51 237.112 51C239.645 51 240.151 51.3038 239.645 52.7218C238.936 54.4436 244 67.7116 244.911 66.6988C245.215 66.3949 246.633 63.2552 248.152 59.7103C250.178 55.0513 250.583 52.8231 249.874 52.1141C249.064 51.3038 249.57 51 251.495 51C254.533 51 254.837 51.5064 252.811 53.5321C252.102 54.3423 249.874 58.7988 248.051 63.559C246.228 68.3193 244.304 72.2693 243.898 72.2693C243.493 72.2693 242.379 70.6488 241.569 68.6231Z" fill="black"/>
</svg>
