<svg width="800" height="500" viewBox="0 0 800 500" fill="none" xmlns="http://www.w3.org/2000/svg">
<rect width="800" height="500" fill="white"/>
<rect x="50" y="50" width="100" height="100" fill="black"/>
<path d="M64.4 111V88.6H71.728C73.4773 88.6 74.9173 88.8987 76.048 89.496C77.2 90.0933 78.0533 90.904 78.608 91.928C79.184 92.9307 79.472 94.072 79.472 95.352C79.472 96.8027 79.0987 98.0933 78.352 99.224C77.6267 100.333 76.5067 101.144 74.992 101.656L79.696 111H75.76L71.472 102.136H67.792V111H64.4ZM67.792 99.064H71.536C73.072 99.064 74.192 98.7227 74.896 98.04C75.6213 97.3573 75.984 96.4613 75.984 95.352C75.984 94.2213 75.632 93.3253 74.928 92.664C74.224 91.9813 73.0827 91.64 71.504 91.64H67.792V99.064ZM90.7875 111.384C89.2728 111.384 87.9182 111.043 86.7235 110.36C85.5288 109.677 84.5902 108.717 83.9075 107.48C83.2248 106.221 82.8835 104.749 82.8835 103.064C82.8835 101.379 83.2248 99.9173 83.9075 98.68C84.5902 97.4213 85.5288 96.4507 86.7235 95.768C87.9182 95.0853 89.2835 94.744 90.8195 94.744C92.3555 94.744 93.7102 95.0853 94.8835 95.768C96.0782 96.4507 97.0062 97.4213 97.6675 98.68C98.3502 99.9173 98.6915 101.379 98.6915 103.064C98.6915 104.749 98.3502 106.221 97.6675 107.48C96.9848 108.717 96.0462 109.677 94.8515 110.36C93.6782 111.043 92.3235 111.384 90.7875 111.384ZM90.7875 108.152C91.5982 108.152 92.3448 107.971 93.0275 107.608C93.7102 107.245 94.2542 106.691 94.6595 105.944C95.0862 105.176 95.2995 104.216 95.2995 103.064C95.2995 101.891 95.0862 100.931 94.6595 100.184C94.2542 99.4373 93.7102 98.8827 93.0275 98.52C92.3662 98.1573 91.6302 97.976 90.8195 97.976C90.0088 97.976 89.2622 98.1573 88.5795 98.52C87.8968 98.8827 87.3422 99.4373 86.9155 100.184C86.5102 100.931 86.3075 101.891 86.3075 103.064C86.3075 104.813 86.7448 106.104 87.6195 106.936C88.5155 107.747 89.5715 108.152 90.7875 108.152ZM109.975 111.384C108.46 111.384 107.106 111.043 105.911 110.36C104.716 109.677 103.778 108.717 103.095 107.48C102.412 106.221 102.071 104.749 102.071 103.064C102.071 101.379 102.412 99.9173 103.095 98.68C103.778 97.4213 104.716 96.4507 105.911 95.768C107.106 95.0853 108.471 94.744 110.007 94.744C111.543 94.744 112.898 95.0853 114.071 95.768C115.266 96.4507 116.194 97.4213 116.855 98.68C117.538 99.9173 117.879 101.379 117.879 103.064C117.879 104.749 117.538 106.221 116.855 107.48C116.172 108.717 115.234 109.677 114.039 110.36C112.866 111.043 111.511 111.384 109.975 111.384ZM109.975 108.152C110.786 108.152 111.532 107.971 112.215 107.608C112.898 107.245 113.442 106.691 113.847 105.944C114.274 105.176 114.487 104.216 114.487 103.064C114.487 101.891 114.274 100.931 113.847 100.184C113.442 99.4373 112.898 98.8827 112.215 98.52C111.554 98.1573 110.818 97.976 110.007 97.976C109.196 97.976 108.45 98.1573 107.767 98.52C107.084 98.8827 106.53 99.4373 106.103 100.184C105.698 100.931 105.495 101.891 105.495 103.064C105.495 104.813 105.932 106.104 106.807 106.936C107.703 107.747 108.759 108.152 109.975 108.152ZM130.891 111C129.333 111 128.096 110.627 127.179 109.88C126.261 109.112 125.803 107.757 125.803 105.816V98.008H121.803V95.128H124.171C125.259 95.128 125.899 94.5947 126.091 93.528L126.571 90.968H129.195V95.128H135.467V98.008H129.195V105.752C129.195 106.584 129.376 107.171 129.739 107.512C130.123 107.832 130.773 107.992 131.691 107.992H135.403V111H130.891Z" fill="white"/>
<rect x="200" y="150" width="100" height="100" fill="#B8BFFF"/>
<rect x="350" y="250" width="100" height="100" fill="#FFB7B7"/>
<rect x="650" y="250" width="100" height="100" fill="#B8BFFF"/>
<path d="M223.24 177.04L226.728 167.6H229.768L227.752 177.04H223.24ZM230.728 177.04L234.216 167.6H237.256L235.24 177.04H230.728ZM249.852 190.384C247.974 190.384 246.374 189.904 245.052 188.944C243.75 187.984 242.748 186.64 242.044 184.912C241.361 183.163 241.02 181.136 241.02 178.832C241.02 176.507 241.361 174.48 242.044 172.752C242.748 171.003 243.761 169.648 245.084 168.688C246.406 167.707 247.996 167.216 249.852 167.216C252.262 167.216 254.182 167.877 255.612 169.2C257.041 170.501 257.873 172.272 258.108 174.512H254.364C254.172 173.339 253.692 172.368 252.924 171.6C252.177 170.811 251.142 170.416 249.82 170.416C248.134 170.416 246.822 171.163 245.884 172.656C244.945 174.149 244.476 176.208 244.476 178.832C244.476 181.435 244.945 183.483 245.884 184.976C246.822 186.448 248.134 187.184 249.82 187.184C251.185 187.184 252.23 186.832 252.956 186.128C253.681 185.403 254.15 184.453 254.364 183.28H258.108C257.766 185.477 256.902 187.216 255.516 188.496C254.129 189.755 252.241 190.384 249.852 190.384ZM261.903 177.04L263.919 167.6H268.431L264.943 177.04H261.903ZM269.391 177.04L271.407 167.6H275.919L272.431 177.04H269.391ZM222.792 232V209.6H230.792C233.117 209.6 234.877 210.133 236.072 211.2C237.267 212.267 237.864 213.643 237.864 215.328C237.864 216.629 237.523 217.685 236.84 218.496C236.157 219.307 235.368 219.893 234.472 220.256V220.48C235.539 220.864 236.456 221.493 237.224 222.368C237.992 223.221 238.376 224.352 238.376 225.76C238.376 226.912 238.088 227.968 237.512 228.928C236.957 229.867 236.136 230.613 235.048 231.168C233.96 231.723 232.627 232 231.048 232H222.792ZM226.184 218.944H230.376C231.677 218.944 232.669 218.688 233.352 218.176C234.035 217.643 234.376 216.843 234.376 215.776C234.376 213.664 233.021 212.608 230.312 212.608H226.184V218.944ZM226.184 228.864H230.6C231.987 228.864 233.053 228.565 233.8 227.968C234.547 227.371 234.92 226.496 234.92 225.344C234.92 224.213 234.525 223.349 233.736 222.752C232.947 222.133 231.88 221.824 230.536 221.824H226.184V228.864ZM249.788 232.384C248.273 232.384 246.918 232.043 245.724 231.36C244.529 230.677 243.59 229.717 242.908 228.48C242.225 227.221 241.884 225.749 241.884 224.064C241.884 222.379 242.225 220.917 242.908 219.68C243.59 218.421 244.529 217.451 245.724 216.768C246.918 216.085 248.284 215.744 249.82 215.744C251.356 215.744 252.71 216.085 253.884 216.768C255.078 217.451 256.006 218.421 256.668 219.68C257.35 220.917 257.692 222.379 257.692 224.064C257.692 225.749 257.35 227.221 256.668 228.48C255.985 229.717 255.046 230.677 253.852 231.36C252.678 232.043 251.324 232.384 249.788 232.384ZM249.788 229.152C250.598 229.152 251.345 228.971 252.028 228.608C252.71 228.245 253.254 227.691 253.66 226.944C254.086 226.176 254.3 225.216 254.3 224.064C254.3 222.891 254.086 221.931 253.66 221.184C253.254 220.437 252.71 219.883 252.028 219.52C251.366 219.157 250.63 218.976 249.82 218.976C249.009 218.976 248.262 219.157 247.58 219.52C246.897 219.883 246.342 220.437 245.916 221.184C245.51 221.931 245.308 222.891 245.308 224.064C245.308 225.813 245.745 227.104 246.62 227.936C247.516 228.747 248.572 229.152 249.788 229.152ZM269.839 232.384C268.666 232.384 267.674 232.149 266.863 231.68C266.074 231.189 265.466 230.517 265.039 229.664H264.847L264.559 232H261.647V208.96H265.039V218.176C265.423 217.536 266.031 216.971 266.863 216.48C267.695 215.989 268.687 215.744 269.839 215.744C271.162 215.744 272.346 216.064 273.391 216.704C274.436 217.323 275.258 218.251 275.855 219.488C276.474 220.725 276.783 222.251 276.783 224.064C276.783 225.877 276.474 227.403 275.855 228.64C275.258 229.877 274.436 230.816 273.391 231.456C272.346 232.075 271.162 232.384 269.839 232.384ZM269.135 229.152C270.351 229.152 271.354 228.736 272.143 227.904C272.954 227.051 273.359 225.781 273.359 224.096C273.359 222.389 272.954 221.109 272.143 220.256C271.354 219.403 270.351 218.976 269.135 218.976C267.919 218.976 266.906 219.403 266.095 220.256C265.306 221.088 264.911 222.357 264.911 224.064C264.911 225.749 265.306 227.019 266.095 227.872C266.906 228.725 267.919 229.152 269.135 229.152Z" fill="black"/>
<path d="M673.24 277.04L676.728 267.6H679.768L677.752 277.04H673.24ZM680.728 277.04L684.216 267.6H687.256L685.24 277.04H680.728ZM698.188 281.84L697.676 267.6H701.9L701.356 281.84H698.188ZM699.82 290.192C699.03 290.192 698.358 289.936 697.804 289.424C697.249 288.891 696.972 288.251 696.972 287.504C696.972 286.757 697.249 286.128 697.804 285.616C698.358 285.104 699.03 284.848 699.82 284.848C700.63 284.848 701.302 285.104 701.836 285.616C702.39 286.128 702.668 286.757 702.668 287.504C702.668 288.251 702.39 288.891 701.836 289.424C701.302 289.936 700.63 290.192 699.82 290.192ZM711.903 277.04L713.919 267.6H718.431L714.943 277.04H711.903ZM719.391 277.04L721.407 267.6H725.919L722.431 277.04H719.391ZM672.792 332V309.6H680.792C683.117 309.6 684.877 310.133 686.072 311.2C687.267 312.267 687.864 313.643 687.864 315.328C687.864 316.629 687.523 317.685 686.84 318.496C686.157 319.307 685.368 319.893 684.472 320.256V320.48C685.539 320.864 686.456 321.493 687.224 322.368C687.992 323.221 688.376 324.352 688.376 325.76C688.376 326.912 688.088 327.968 687.512 328.928C686.957 329.867 686.136 330.613 685.048 331.168C683.96 331.723 682.627 332 681.048 332H672.792ZM676.184 318.944H680.376C681.677 318.944 682.669 318.688 683.352 318.176C684.035 317.643 684.376 316.843 684.376 315.776C684.376 313.664 683.021 312.608 680.312 312.608H676.184V318.944ZM676.184 328.864H680.6C681.987 328.864 683.053 328.565 683.8 327.968C684.547 327.371 684.92 326.496 684.92 325.344C684.92 324.213 684.525 323.349 683.736 322.752C682.947 322.133 681.88 321.824 680.536 321.824H676.184V328.864ZM699.788 332.384C698.273 332.384 696.918 332.043 695.724 331.36C694.529 330.677 693.59 329.717 692.908 328.48C692.225 327.221 691.884 325.749 691.884 324.064C691.884 322.379 692.225 320.917 692.908 319.68C693.59 318.421 694.529 317.451 695.724 316.768C696.918 316.085 698.284 315.744 699.82 315.744C701.356 315.744 702.71 316.085 703.884 316.768C705.078 317.451 706.006 318.421 706.668 319.68C707.35 320.917 707.692 322.379 707.692 324.064C707.692 325.749 707.35 327.221 706.668 328.48C705.985 329.717 705.046 330.677 703.852 331.36C702.678 332.043 701.324 332.384 699.788 332.384ZM699.788 329.152C700.598 329.152 701.345 328.971 702.028 328.608C702.71 328.245 703.254 327.691 703.66 326.944C704.086 326.176 704.3 325.216 704.3 324.064C704.3 322.891 704.086 321.931 703.66 321.184C703.254 320.437 702.71 319.883 702.028 319.52C701.366 319.157 700.63 318.976 699.82 318.976C699.009 318.976 698.262 319.157 697.58 319.52C696.897 319.883 696.342 320.437 695.916 321.184C695.51 321.931 695.308 322.891 695.308 324.064C695.308 325.813 695.745 327.104 696.62 327.936C697.516 328.747 698.572 329.152 699.788 329.152ZM719.839 332.384C718.666 332.384 717.674 332.149 716.863 331.68C716.074 331.189 715.466 330.517 715.039 329.664H714.847L714.559 332H711.647V308.96H715.039V318.176C715.423 317.536 716.031 316.971 716.863 316.48C717.695 315.989 718.687 315.744 719.839 315.744C721.162 315.744 722.346 316.064 723.391 316.704C724.436 317.323 725.258 318.251 725.855 319.488C726.474 320.725 726.783 322.251 726.783 324.064C726.783 325.877 726.474 327.403 725.855 328.64C725.258 329.877 724.436 330.816 723.391 331.456C722.346 332.075 721.162 332.384 719.839 332.384ZM719.135 329.152C720.351 329.152 721.354 328.736 722.143 327.904C722.954 327.051 723.359 325.781 723.359 324.096C723.359 322.389 722.954 321.109 722.143 320.256C721.354 319.403 720.351 318.976 719.135 318.976C717.919 318.976 716.906 319.403 716.095 320.256C715.306 321.088 714.911 322.357 714.911 324.064C714.911 325.749 715.306 327.019 716.095 327.872C716.906 328.725 717.919 329.152 719.135 329.152Z" fill="black"/>
<path d="M373.24 277.04L376.728 267.6H379.768L377.752 277.04H373.24ZM380.728 277.04L384.216 267.6H387.256L385.24 277.04H380.728ZM398.348 290.384C397.089 290.384 396.033 290.171 395.18 289.744C394.326 289.296 393.686 288.709 393.26 287.984C392.833 287.237 392.62 286.427 392.62 285.552C392.62 283.995 393.185 282.779 394.316 281.904C395.468 281.029 397.089 280.592 399.18 280.592H403.276V280.24C403.276 277.851 402.166 276.656 399.948 276.656C399.03 276.656 398.252 276.859 397.612 277.264C396.993 277.648 396.577 278.277 396.364 279.152H392.972C393.142 277.488 393.857 276.176 395.116 275.216C396.396 274.235 398.006 273.744 399.948 273.744C402.294 273.744 404.001 274.32 405.068 275.472C406.134 276.624 406.668 278.213 406.668 280.24V290H403.788L403.5 287.664H403.276C402.806 288.411 402.22 289.051 401.516 289.584C400.812 290.117 399.756 290.384 398.348 290.384ZM398.988 287.536C400.374 287.536 401.409 287.12 402.092 286.288C402.796 285.435 403.18 284.357 403.244 283.056H399.532C398.316 283.056 397.452 283.259 396.94 283.664C396.449 284.048 396.204 284.592 396.204 285.296C396.204 286 396.449 286.555 396.94 286.96C397.452 287.344 398.134 287.536 398.988 287.536ZM411.903 277.04L413.919 267.6H418.431L414.943 277.04H411.903ZM419.391 277.04L421.407 267.6H425.919L422.431 277.04H419.391ZM372.376 332V309.6H375.96L380.6 319.712L385.24 309.6H388.824V332H385.592V316.064L381.944 324.064H379.256L375.608 316.096V332H372.376ZM399.468 313.696C398.721 313.696 398.092 313.461 397.58 312.992C397.089 312.501 396.844 311.904 396.844 311.2C396.844 310.496 397.089 309.909 397.58 309.44C398.092 308.971 398.721 308.736 399.468 308.736C400.236 308.736 400.865 308.971 401.356 309.44C401.868 309.909 402.124 310.496 402.124 311.2C402.124 311.904 401.868 312.501 401.356 312.992C400.865 313.461 400.236 313.696 399.468 313.696ZM393.1 332V329.056H398.092V320.128C398.092 319.424 397.75 319.072 397.068 319.072H393.548V316.128H397.676C398.998 316.128 399.958 316.437 400.556 317.056C401.174 317.653 401.484 318.613 401.484 319.936V329.056H406.476V332H393.1ZM417.535 332.384C416.276 332.384 415.22 332.171 414.367 331.744C413.514 331.296 412.874 330.709 412.447 329.984C412.02 329.237 411.807 328.427 411.807 327.552C411.807 325.995 412.372 324.779 413.503 323.904C414.655 323.029 416.276 322.592 418.367 322.592H422.463V322.24C422.463 319.851 421.354 318.656 419.135 318.656C418.218 318.656 417.439 318.859 416.799 319.264C416.18 319.648 415.764 320.277 415.551 321.152H412.159C412.33 319.488 413.044 318.176 414.303 317.216C415.583 316.235 417.194 315.744 419.135 315.744C421.482 315.744 423.188 316.32 424.255 317.472C425.322 318.624 425.855 320.213 425.855 322.24V332H422.975L422.687 329.664H422.463C421.994 330.411 421.407 331.051 420.703 331.584C419.999 332.117 418.943 332.384 417.535 332.384ZM418.175 329.536C419.562 329.536 420.596 329.12 421.279 328.288C421.983 327.435 422.367 326.357 422.431 325.056H418.719C417.503 325.056 416.639 325.259 416.127 325.664C415.636 326.048 415.391 326.592 415.391 327.296C415.391 328 415.636 328.555 416.127 328.96C416.639 329.344 417.322 329.536 418.175 329.536Z" fill="black"/>
<rect x="500" y="350" width="100" height="100" fill="#FFB7B7"/>
<path d="M523.24 377.04L526.728 367.6H529.768L527.752 377.04H523.24ZM530.728 377.04L534.216 367.6H537.256L535.24 377.04H530.728ZM551.516 390C549.958 390 548.721 389.627 547.804 388.88C546.886 388.112 546.428 386.757 546.428 384.816V377.008H542.428V374.128H544.796C545.884 374.128 546.524 373.595 546.716 372.528L547.196 369.968H549.82V374.128H556.092V377.008H549.82V384.752C549.82 385.584 550.001 386.171 550.364 386.512C550.748 386.832 551.398 386.992 552.316 386.992H556.028V390H551.516ZM561.903 377.04L563.919 367.6H568.431L564.943 377.04H561.903ZM569.391 377.04L571.407 367.6H575.919L572.431 377.04H569.391ZM522.376 432V409.6H525.96L530.6 419.712L535.24 409.6H538.824V432H535.592V416.064L531.944 424.064H529.256L525.608 416.096V432H522.376ZM549.468 413.696C548.721 413.696 548.092 413.461 547.58 412.992C547.089 412.501 546.844 411.904 546.844 411.2C546.844 410.496 547.089 409.909 547.58 409.44C548.092 408.971 548.721 408.736 549.468 408.736C550.236 408.736 550.865 408.971 551.356 409.44C551.868 409.909 552.124 410.496 552.124 411.2C552.124 411.904 551.868 412.501 551.356 412.992C550.865 413.461 550.236 413.696 549.468 413.696ZM543.1 432V429.056H548.092V420.128C548.092 419.424 547.75 419.072 547.068 419.072H543.548V416.128H547.676C548.998 416.128 549.958 416.437 550.556 417.056C551.174 417.653 551.484 418.613 551.484 419.936V429.056H556.476V432H543.1ZM567.535 432.384C566.276 432.384 565.22 432.171 564.367 431.744C563.514 431.296 562.874 430.709 562.447 429.984C562.02 429.237 561.807 428.427 561.807 427.552C561.807 425.995 562.372 424.779 563.503 423.904C564.655 423.029 566.276 422.592 568.367 422.592H572.463V422.24C572.463 419.851 571.354 418.656 569.135 418.656C568.218 418.656 567.439 418.859 566.799 419.264C566.18 419.648 565.764 420.277 565.551 421.152H562.159C562.33 419.488 563.044 418.176 564.303 417.216C565.583 416.235 567.194 415.744 569.135 415.744C571.482 415.744 573.188 416.32 574.255 417.472C575.322 418.624 575.855 420.213 575.855 422.24V432H572.975L572.687 429.664H572.463C571.994 430.411 571.407 431.051 570.703 431.584C569.999 432.117 568.943 432.384 567.535 432.384ZM568.175 429.536C569.562 429.536 570.596 429.12 571.279 428.288C571.983 427.435 572.367 426.357 572.431 425.056H568.719C567.503 425.056 566.639 425.259 566.127 425.664C565.636 426.048 565.391 426.592 565.391 427.296C565.391 428 565.636 428.555 566.127 428.96C566.639 429.344 567.322 429.536 568.175 429.536Z" fill="black"/>
<path d="M150 100L170 111.547V88.453L150 100ZM250 100H252V98H250V100ZM168 102H250V98H168V102ZM248 100V150H252V100H248Z" fill="black"/>
<path d="M300 200L320 211.547V188.453L300 200ZM700 200H702V198H700V200ZM318 202H400V198H318V202ZM398 200V250H402V200H398ZM400 202H700V198H400V202ZM698 200V250H702V200H698Z" fill="black"/>
<path d="M450 300L470 311.547V288.453L450 300ZM550 300H552V298H550V300ZM468 302H550V298H468V302ZM548 300V350H552V300H548Z" fill="black"/>
<rect x="700" y="50" width="50" height="50" fill="#B8BFFF"/>
<path d="M723 77.84L722.488 63.6H726.712L726.168 77.84H723ZM724.632 86.192C723.843 86.192 723.171 85.936 722.616 85.424C722.061 84.8907 721.784 84.2507 721.784 83.504C721.784 82.7573 722.061 82.128 722.616 81.616C723.171 81.104 723.843 80.848 724.632 80.848C725.443 80.848 726.115 81.104 726.648 81.616C727.203 82.128 727.48 82.7573 727.48 83.504C727.48 84.2507 727.203 84.8907 726.648 85.424C726.115 85.936 725.443 86.192 724.632 86.192Z" fill="black"/>
<rect x="650" y="50" width="50" height="50" fill="#FFB7B7"/>
<path d="M676.328 86C674.771 86 673.533 85.6267 672.616 84.88C671.699 84.112 671.24 82.7573 671.24 80.816V73.008H667.24V70.128H669.608C670.696 70.128 671.336 69.5947 671.528 68.528L672.008 65.968H674.632V70.128H680.904V73.008H674.632V80.752C674.632 81.584 674.813 82.1707 675.176 82.512C675.56 82.832 676.211 82.992 677.128 82.992H680.84V86H676.328Z" fill="black"/>
<rect x="600" y="50" width="50" height="50" fill="#FFB7B7"/>
<path d="M623.16 86.384C621.901 86.384 620.845 86.1707 619.992 85.744C619.139 85.296 618.499 84.7093 618.072 83.984C617.645 83.2373 617.432 82.4267 617.432 81.552C617.432 79.9947 617.997 78.7787 619.128 77.904C620.28 77.0293 621.901 76.592 623.992 76.592H628.088V76.24C628.088 73.8507 626.979 72.656 624.76 72.656C623.843 72.656 623.064 72.8587 622.424 73.264C621.805 73.648 621.389 74.2773 621.176 75.152H617.784C617.955 73.488 618.669 72.176 619.928 71.216C621.208 70.2347 622.819 69.744 624.76 69.744C627.107 69.744 628.813 70.32 629.88 71.472C630.947 72.624 631.48 74.2133 631.48 76.24V86H628.6L628.312 83.664H628.088C627.619 84.4107 627.032 85.0507 626.328 85.584C625.624 86.1173 624.568 86.384 623.16 86.384ZM623.8 83.536C625.187 83.536 626.221 83.12 626.904 82.288C627.608 81.4347 627.992 80.3573 628.056 79.056H624.344C623.128 79.056 622.264 79.2587 621.752 79.664C621.261 80.048 621.016 80.592 621.016 81.296C621.016 82 621.261 82.5547 621.752 82.96C622.264 83.344 622.947 83.536 623.8 83.536Z" fill="black"/>
<rect x="550" y="50" width="50" height="50" fill="#B8BFFF"/>
<path d="M574.664 86.384C572.787 86.384 571.187 85.904 569.864 84.944C568.563 83.984 567.56 82.64 566.856 80.912C566.173 79.1627 565.832 77.136 565.832 74.832C565.832 72.5067 566.173 70.48 566.856 68.752C567.56 67.0027 568.573 65.648 569.896 64.688C571.219 63.7067 572.808 63.216 574.664 63.216C577.075 63.216 578.995 63.8773 580.424 65.2C581.853 66.5013 582.685 68.272 582.92 70.512H579.176C578.984 69.3387 578.504 68.368 577.736 67.6C576.989 66.8107 575.955 66.416 574.632 66.416C572.947 66.416 571.635 67.1627 570.696 68.656C569.757 70.1493 569.288 72.208 569.288 74.832C569.288 77.4347 569.757 79.4827 570.696 80.976C571.635 82.448 572.947 83.184 574.632 83.184C575.997 83.184 577.043 82.832 577.768 82.128C578.493 81.4027 578.963 80.4533 579.176 79.28H582.92C582.579 81.4773 581.715 83.216 580.328 84.496C578.941 85.7547 577.053 86.384 574.664 86.384Z" fill="black"/>
<rect x="500" y="50" width="50" height="50" fill="black"/>
<circle cx="525" cy="75" r="15" fill="white"/>
</svg>
